<svg width="26" height="25" fill="none" xmlns="http://www.w3.org/2000/svg"><path d="M7.216 9.343a5.82 5.82 0 0 1 11.567 0l.263 2.36.023.204a8 8 0 0 0 1.028 3.044l.104.176.602 1.004c.581.968.872 1.452.78 1.846a1 1 0 0 1-.278.49c-.291.283-.855.283-1.984.283H6.679c-1.129 0-1.693 0-1.984-.282a1 1 0 0 1-.278-.49c-.092-.395.199-.88.78-1.847l.602-1.004.104-.176a8 8 0 0 0 1.028-3.044l.023-.203.263-2.361Z" stroke="#fff"/><path d="M7.216 9.343a5.82 5.82 0 0 1 11.567 0l.263 2.36.023.204a8 8 0 0 0 1.028 3.044l.104.176.602 1.004c.581.968.872 1.452.78 1.846a1 1 0 0 1-.278.49c-.291.283-.855.283-1.984.283H6.679c-1.129 0-1.693 0-1.984-.282a1 1 0 0 1-.278-.49c-.092-.395.199-.88.78-1.847l.602-1.004.104-.176a8 8 0 0 0 1.028-3.044l.023-.203.263-2.361Z" stroke="#fff"/><path d="M9.981 19.173c.178.775.57 1.46 1.117 1.949.545.488 1.214.753 1.902.753s1.357-.265 1.902-.753c.546-.489.939-1.174 1.117-1.95" stroke="#fff" stroke-linecap="round"/></svg>