<svg width="304" height="51" viewBox="0 0 304 51" fill="none" xmlns="http://www.w3.org/2000/svg">
<path d="M53.6594 27.6263V15.1116C53.6594 13.8173 54.6962 12.7736 55.9818 12.7736H77.7337V8.09755H55.9818C54.6962 8.09755 53.6594 7.0538 53.6594 5.75954V4.54878C53.6594 3.25452 54.6962 2.21076 55.9818 2.21076H81.8393C83.125 2.21076 84.1617 3.25452 84.1617 4.54878V16.218C84.1617 17.5123 83.125 18.556 81.8393 18.556H60.0253C60.046 20.226 59.932 22.2092 59.9527 23.8896L82.2022 23.5765C83.5189 23.5347 84.5972 24.5889 84.5972 25.9145V27.4697C84.5972 28.7222 83.6226 29.7555 82.3785 29.8077L56.0855 29.9643C54.7584 30.0269 53.6594 28.9623 53.6594 27.6263ZM66.2357 37.3958V43.6688C67.0133 43.6688 67.7909 43.6688 68.5581 43.6688H94.1045C95.3902 43.6688 96.427 44.7126 96.427 46.0068V47.322C96.427 48.6162 95.3902 49.66 94.1045 49.66H61.5598C60.2741 49.66 59.2373 48.6162 59.2373 47.322V37.3854C59.2373 36.0911 60.2741 35.0474 61.5598 35.0474H63.9133C65.1989 35.0474 66.2357 36.0911 66.2357 37.3854V37.3958ZM89.9885 34.1498V3.33802C89.9885 2.04376 91.0253 1 92.3109 1H94.6644C95.95 1 96.9868 2.04376 96.9868 3.33802V34.1498C96.9868 35.444 95.95 36.4878 94.6644 36.4878H92.3109C91.0253 36.4878 89.9885 35.444 89.9885 34.1498Z" fill="white" stroke="white" stroke-miterlimit="10"/>
<path d="M118.949 36.41C110.196 36.41 103.653 29.5137 103.653 19.79C103.653 10.0664 110.196 3.17009 118.949 3.17009C127.702 3.17009 134.245 10.0664 134.245 19.79C134.245 29.5137 127.702 36.41 118.949 36.41ZM118.949 9.35692C114.101 9.35692 110.72 13.4884 110.72 19.79C110.72 26.0916 114.091 30.2231 118.949 30.2231C123.807 30.2231 127.178 26.0916 127.178 19.79C127.178 13.4884 123.807 9.35692 118.949 9.35692ZM140.569 47.2187V3.44135C140.569 2.09548 141.626 1 142.946 1H145.27C146.579 1 147.647 2.09548 147.647 3.44135V47.2187C147.647 48.5645 146.589 49.66 145.27 49.66H142.946C141.637 49.66 140.569 48.5645 140.569 47.2187Z" fill="white" stroke="white" stroke-miterlimit="10"/>
<path d="M154.312 42.8476V42.7848C154.312 41.6442 155.219 40.7129 156.341 40.7024L176.402 40.4512C177.545 40.4408 178.482 41.3721 178.482 42.5336C178.482 43.6742 177.586 44.6056 176.463 44.616L156.403 44.93C155.26 44.9509 154.323 44.0091 154.323 42.8476H154.312ZM176.319 26.8163C176.319 31.881 172.179 36.5585 166.145 36.5585C160.11 36.5585 155.97 31.8705 155.97 26.8163C155.97 21.762 160.11 17.074 166.145 17.074C172.179 17.074 176.319 21.762 176.319 26.8163ZM171.417 26.8163C171.417 23.9909 169.368 21.3121 166.145 21.3121C162.922 21.3121 160.872 23.9909 160.872 26.8163C160.872 29.6416 162.922 32.3205 166.145 32.3205C169.368 32.3205 171.417 29.6416 171.417 26.8163ZM181.406 47.567V18.4134C181.406 17.2624 182.323 16.3311 183.456 16.3311H184.259C185.392 16.3311 186.308 17.2624 186.308 18.4134V47.5774C186.308 48.7285 185.392 49.6598 184.259 49.6598H183.456C182.323 49.6598 181.406 48.7285 181.406 47.5774V47.567Z" fill="white" stroke="white" stroke-width="0.5" stroke-miterlimit="10"/>
<path d="M206.343 2.96058H226.011C227.71 2.96058 229.088 4.43102 228.985 6.19346C228.083 22.3474 219.12 34.4029 207.877 41.4318C206.654 42.1931 205.079 41.9637 204.116 40.8582L203.774 40.4724C203.152 39.7528 202.914 38.8246 203.028 37.9486C203.193 36.7702 204.105 36.0298 204.426 35.7586C208.074 32.7448 211.908 29.856 214.789 25.9974C216.706 23.432 219.856 20.074 221.078 12.8782C221.12 11.7102 221.192 10.3649 221.234 9.19691C219.856 9.16562 219.648 9.1969 218.156 9.14476H206.333C204.685 9.14476 203.359 7.75775 203.359 6.04746C203.359 4.33716 204.696 2.95015 206.333 2.95015L206.343 2.96058ZM236 46.5627V4.0973C236 2.38701 237.337 1 238.974 1H240.021C241.668 1 242.995 2.38701 242.995 4.0973V46.5627C242.995 48.273 241.658 49.66 240.021 49.66H238.974C237.326 49.66 236 48.273 236 46.5627Z" fill="white" stroke="white" stroke-miterlimit="10"/>
<path d="M4.74897 4.23648H27.6672C29.1218 4.23648 30.2834 5.32864 30.2207 6.63923C29.4776 23.0008 18.9604 35.1082 5.8164 42.0043C4.79083 42.5452 3.48271 42.3372 2.68738 41.5363L1.87111 40.725C1.16996 40.0281 0.89787 39.1231 1.03391 38.2702C1.21182 37.126 2.24785 36.3979 2.60366 36.1379C6.69545 33.2047 11.007 30.3963 14.2407 26.6517C16.3965 24.1554 19.9336 20.8893 21.3045 13.8891C21.3568 12.7553 21.4301 11.4447 21.4824 10.311C19.9336 10.2798 19.7034 10.311 18.029 10.259H4.36177C3.45132 10.259 2.57226 9.8637 2.06994 9.1668C0.343228 6.76405 2.21645 4.23648 4.73851 4.23648H4.74897ZM37.2636 47.3611V4.63174C37.2636 3.36276 38.2891 2.33301 39.5554 2.33301H42.0356C43.3018 2.33301 44.3274 3.36276 44.3274 4.63174V47.3611C44.3274 48.6301 43.3018 49.6599 42.0356 49.6599H39.5554C38.2891 49.6599 37.2636 48.6301 37.2636 47.3611Z" fill="white" stroke="white" stroke-miterlimit="10"/>
<path d="M270.881 6.99918H266.445C265.642 6.99918 264.992 6.57097 264.992 6.04967V2.94979C265.068 2.78223 265.187 2.54019 265.415 2.27954C266.141 1.45105 267.497 0.948365 268.875 1.00422C268.983 1.00422 270.871 1.10662 271.901 2.27954C272.129 2.54019 272.248 2.78223 272.324 2.94979V6.04967C272.324 6.57097 271.673 6.99918 270.871 6.99918H270.881Z" fill="white" stroke="white" stroke-miterlimit="10"/>
<path d="M274.017 26.1855L283.68 26.2794C285.214 26.2377 286.55 27.0306 286.988 28.1887C287.281 28.9712 287.176 29.9623 286.581 30.6405C285.83 31.496 284.546 31.5794 283.962 31.6107C281.29 31.7464 270.113 31.7672 254.877 31.6107C254.71 31.6212 253.468 31.7255 252.508 30.8282C251.631 30.0145 251.652 28.9816 251.663 28.8147C251.663 28.6686 251.652 27.5523 252.644 26.7593C253.656 25.956 254.856 26.1333 255.013 26.1646C261.347 26.1646 267.682 26.1855 274.017 26.1855ZM289.107 46.8222V44.5061C289.086 43.5671 289.065 42.6281 289.044 41.6891C288.074 41.6891 287.103 41.6682 286.122 41.6682H255.002C253.353 41.6682 252.028 40.3954 252.028 38.8304C252.028 37.2655 253.364 35.9926 255.002 35.9926H293.521C295.17 35.9926 296.495 37.2655 296.495 38.8304V46.8222C296.495 48.3872 295.16 49.66 293.521 49.66H292.081C290.432 49.66 289.107 48.3872 289.107 46.8222ZM290.61 30.2231V3.8378C290.61 2.27284 291.883 1 293.448 1H294.815C296.381 1 297.654 2.27284 297.654 3.8378V30.2231C297.654 31.7881 296.381 33.0609 294.815 33.0609H293.448C291.883 33.0609 290.61 31.7881 290.61 30.2231Z" fill="white" stroke="white" stroke-miterlimit="10"/>
<path d="M282.969 3.67651H255.69C254.2 3.67651 252.993 4.88374 252.993 6.3744C252.993 7.86506 254.2 9.07229 255.69 9.07229H256.267C257.064 9.0408 257.851 8.99881 258.648 8.96731C258.218 9.32423 256.256 11.0773 255.973 14.0272C255.721 16.5991 256.907 18.4572 257.253 18.9715C259.855 22.9082 265.091 22.7507 265.447 22.7402C266.507 22.8872 267.955 23.0236 269.676 22.9921C270.725 22.9711 272.32 22.9501 274.166 22.5512C276.758 21.9949 278.909 21.5225 280.504 19.6644C282.518 17.3129 282.319 14.2896 282.266 13.5128C282.13 11.4028 281.322 9.84911 280.839 9.05129C282.088 9.05129 283.337 9.05129 284.585 9.06179C285.173 9.06179 285.655 8.5789 285.655 7.99103V6.3639C285.655 4.87324 284.449 3.66602 282.959 3.66602L282.969 3.67651ZM269.33 17.8798C265.626 17.8798 263.464 16.4521 263.464 14.2266C263.464 12.0011 265.636 10.5734 269.33 10.5734C273.023 10.5734 275.195 12.0011 275.195 14.2266C275.195 16.4521 273.023 17.8798 269.33 17.8798Z" fill="white" stroke="white" stroke-miterlimit="10"/>
<path d="M272.991 22.3301H265.658V28.3293H272.991V22.3301Z" fill="white" stroke="white" stroke-miterlimit="10"/>
</svg>
