<svg width="133" height="133" viewBox="0 0 133 133" fill="none" xmlns="http://www.w3.org/2000/svg">
<path d="M52.7119 80.2881L52.7119 63.7422" stroke="white" stroke-width="6" stroke-linecap="round"/>
<path d="M80.2881 80.2881L80.2881 63.7422" stroke="white" stroke-width="6" stroke-linecap="round"/>
<path d="M16.8623 36.166H116.137H100.834C98.9482 36.166 98.0054 36.166 97.4196 36.7518C96.8338 37.3376 96.8338 38.2804 96.8338 40.166V103.865C96.8338 105.75 96.8338 106.693 96.248 107.279C95.6623 107.865 94.7194 107.865 92.8338 107.865H40.1658C38.2802 107.865 37.3373 107.865 36.7516 107.279C36.1658 106.693 36.1658 105.75 36.1658 103.865V40.166C36.1658 38.2804 36.1658 37.3376 35.58 36.7518C34.9942 36.166 34.0514 36.166 32.1658 36.166H16.8623Z" stroke="white" stroke-width="6" stroke-linecap="round"/>
<path d="M52.7117 19.6211C52.7117 19.6211 55.4693 14.1045 66.4999 14.1045C77.5304 14.1045 80.2881 19.6198 80.2881 19.6198" stroke="white" stroke-width="6" stroke-linecap="round"/>
</svg>
