<svg width="151" height="158" viewBox="0 0 151 158" fill="none" xmlns="http://www.w3.org/2000/svg">
<circle cx="76" cy="75" r="75" fill="#E3E0FF"/>
<mask id="mask0_1194_179607" style="mask-type:alpha" maskUnits="userSpaceOnUse" x="1" y="0" width="150" height="150">
<circle cx="76" cy="75" r="74.5" fill="#E3E0FF" stroke="black"/>
</mask>
<g mask="url(#mask0_1194_179607)">
<path d="M35.4626 73.8193C35.4016 73.931 35.3477 74.045 35.3477 74.045C34.8566 75.1132 34.9558 76.1062 34.9654 76.312C35.0686 78.2308 31.3788 82.6394 31.9731 83.49C32.5675 84.3405 37.684 81.9066 40.3599 77.5724C41.8992 75.0853 41.6264 73.6027 41.548 73.2507C41.4943 73.0126 41.2636 71.9668 40.4335 71.4687C38.7292 70.4401 36.0799 72.6788 35.4599 73.8272L35.4626 73.8193Z" fill="#9F98F9"/>
<path d="M21.0603 67.4319C19.8607 70.0962 20.4387 73.1213 21.1868 77.0962C21.754 80.0726 22.5846 82.2895 23.1853 83.681C24.0304 84.2886 26.1921 85.6077 29.2926 85.0948C32.1845 84.6113 34.3509 82.7847 35.2729 81.9211C38.1215 77.0586 38.8949 71.1314 37.2173 67.1789C35.2176 62.4604 30.6539 62.6997 29.185 62.7669C28.2365 62.819 23.0115 63.0894 21.0603 67.4319V67.4319Z" fill="#9F98F9"/>
<path d="M20.0656 80.6308C22.076 79.8051 23.6565 81.2609 27.1465 82.1116C33.1301 83.5793 35.6443 81.0602 38.0578 82.1591C43.0417 84.4275 40.6933 98.938 38.8116 113.241C34.2351 148.026 35.4832 157.89 27.9225 161.699C22.1123 164.622 14.8483 161.908 13.3246 161.335C12.0336 160.848 4.47509 157.881 1.21671 150.54C0.28302 148.447 -0.743953 144.988 5.79726 119.682C8.98974 107.316 8.39723 111.378 9.89103 105.029C9.91564 104.955 9.94317 104.819 9.9871 104.634C11.4366 98.5792 12.6716 96.1587 16.5215 86.7109C18.3045 82.3301 18.7145 81.1866 20.0765 80.6253L20.0656 80.6308Z" fill="#301FAD"/>
<path d="M51.5632 110.842C47.3085 111.919 39.8051 114.445 32.5661 120.658C29.3089 123.455 24.662 128.219 21.2258 135.313C18.3864 141.162 16.2462 145.586 17.2524 149.409C20.339 161.03 52.5694 161.598 64.0376 161.81C82.2247 162.14 131.09 163.03 135.635 145.934C138.321 135.813 125.506 121.675 119.324 116.428C114.361 112.216 109.237 109.944 108.555 109.639C103.268 107.333 98.5104 106.545 95.2959 106.257C95.6455 117.573 89.9157 127.727 80.7582 131.931C78.9676 132.753 67.9598 137.585 58.9216 130.804C53.0127 126.371 50.1649 118.632 51.5547 110.842H51.5632Z" fill="#301FAD"/>
<path d="M60.5152 107.755C58.2674 109.9 57.8855 116.823 58.1112 118.977C58.1199 119.064 58.1285 119.167 58.1546 119.289C58.1546 119.289 58.5104 121.746 60.1333 124.065C62.546 127.5 76.1716 137.407 75.6248 138.688C75.0347 140.063 55.7419 137.338 48.5386 124.394C46.2213 120.232 46.447 117.333 46.5164 116.624C47.1586 110.394 53.3292 106.595 56.2886 104.778C65.6009 99.0501 78.2631 98.0204 89.2851 102.477C93.4248 104.146 104.655 108.507 105.393 116.624C105.992 123.208 99.3437 128.59 96.1153 131.203C88.2697 137.554 79.5042 138.506 75.6248 138.688C82.5157 134.344 86.5513 127.188 85.4752 120.656C83.479 108.525 64.707 103.748 60.5152 107.755V107.755Z" fill="#4E44D8"/>
<path d="M91.1669 78.1593C91.0804 87.2643 91.9107 94.5483 92.6978 99.6028C93.8827 107.159 95.1196 110.384 94.1855 116.179C92.8967 124.118 88.8662 129.139 87.8543 130.347C85.2768 133.419 81.9469 137.393 77.2158 137.869C68.9818 138.703 60.8603 128.535 58.3174 119.379C58.1012 118.587 57.9109 117.83 57.7812 117.004C56.8644 111.405 57.7985 107.95 58.3174 102.113C58.6201 98.7349 58.3434 99.0922 58.5682 93.6292C58.7499 89.2214 59.1737 82.9245 60.2981 75.1384C60.8776 74.2535 65.2194 67.7949 73.1421 67.029C80.4765 66.3143 87.8456 70.7646 91.1669 78.1593V78.1593Z" fill="white"/>
<path d="M61.5263 91.0004C63.2114 90.5511 65.8657 95.675 66.7737 97.4204C67.9 99.5892 70.6678 104.92 68.7382 107.046C67.6905 108.195 66.0403 107.556 64.8703 109.154C64.1107 110.2 64.5473 110.839 63.8051 112.222C63.0368 113.647 61.3429 115.263 60.3825 114.952C59.1951 114.572 59.5269 111.384 60.0769 101.205C60.5048 93.368 60.5222 91.2769 61.5263 91.0004V91.0004Z" fill="#AFA4FF"/>
<path d="M86.0329 84.4494C85.1739 84.2639 84.3415 85.0311 82.9511 86.3211C81.4633 87.6954 79.453 89.5587 78.5675 92.771C78.408 93.3443 77.124 98.2851 79.9401 102.113C80.7726 103.251 80.8523 102.77 84.554 106.042C87.6004 108.731 88.3177 109.735 89.0705 109.499C90.2926 109.111 90.1863 105.898 90.0978 103.049C90.0003 100.089 89.655 98.5043 88.6808 93.142C87.5119 86.7174 87.2462 84.7192 86.0329 84.4494V84.4494Z" fill="#AFA4FF"/>
<path d="M81.337 122.349C83.6647 119.92 88.7147 119.912 89.8745 121.805C90.696 123.137 89.4798 125.273 88.5939 126.824C85.0822 132.98 78.1798 136.643 77.1488 135.538C76.7622 135.124 77.5113 134.385 78.6147 131.258C80.5719 125.727 79.6698 124.087 81.337 122.349V122.349Z" fill="#AFA4FF"/>
<path d="M69.4574 126.902C68.1883 127.461 66.1952 125.502 65.386 124.471C64.4746 123.319 63.4866 121.345 64.1765 120.681C64.7216 120.153 66.127 120.641 67.294 121.033C68.4268 121.424 69.2104 121.688 69.7641 122.384C70.9054 123.799 70.6414 126.382 69.4574 126.902Z" fill="#AFA4FF"/>
<path d="M70.4552 8.37227C72.2331 7.48742 74.5213 8.27114 75.7312 9.76274C77.2374 11.6251 77.1387 14.6673 75.2456 16.8162C75.723 19.2348 76.5461 23.5832 76.9329 26.9119C76.9494 27.0215 77.0728 27.6703 77.0399 28.5468C76.8918 32.1788 76.8012 33.4513 75.937 33.9738C74.7764 34.6733 72.9492 33.5946 72.0685 33.0047C72.2084 28.5805 71.7228 31.7912 72.2743 29.2209C72.2743 29.2209 74.3649 19.5129 72.5788 17.0522H72.5706V17.0353C72.266 17.1028 70.8997 17.3724 69.7721 16.5213C69.0642 15.9819 68.8008 15.2572 68.6609 14.8527C68.0354 13.0577 68.0436 9.55206 70.4388 8.35542L70.4552 8.37227Z" fill="#AFA4FF"/>
<path d="M102.201 13.4451C100.795 12.0574 98.4131 12.0823 96.8282 13.1044C94.8532 14.3758 94.0404 17.2593 95.1783 19.8686C94.0079 21.9876 91.9435 25.8101 90.5781 28.8099C90.5374 28.9013 90.2204 29.4747 89.9929 30.314C89.0501 33.7709 88.7493 34.9924 89.4077 35.7486C90.2855 36.7624 92.3255 36.3303 93.3252 36.0477C94.5118 31.8596 94.0161 35.0173 94.2599 32.433C94.2599 32.433 95.1864 22.669 97.6004 20.9239H97.6166C97.8767 21.0735 99.0877 21.7549 100.396 21.2979C101.217 21.0153 101.689 20.417 101.932 20.0846C103.054 18.5972 104.094 15.3065 102.201 13.4368V13.4451Z" fill="#AFA4FF"/>
<path d="M56.1111 71.023C55.6669 69.7917 55.4362 68.5094 55.2996 67.0063C54.8041 61.2911 56.5211 56.1619 57.1105 54.3956C60.8747 43.1295 62.8565 37.3662 63.0558 37.1058C67.1048 32.1379 75.1514 27.3569 84.2061 29.1148C93.2437 30.8726 98.779 38.2692 100.667 44.1032C101.487 46.6508 100.368 45.0373 100.974 59.0068C101.111 62.1573 101.401 67.5413 99.0608 72.9252C98.8985 73.2989 98.6935 73.7914 98.3348 74.4283C96.0199 78.564 92.4407 80.9247 89.972 82.207C87.5888 83.2006 81.9339 85.1793 74.7073 84.1178C67.1731 83.0138 62.1845 79.2348 60.2284 77.5704C59.0154 76.356 57.2472 74.1651 56.1111 71.0145V71.023Z" fill="white"/>
<path d="M75.9092 49.5443C75.8794 49.4111 75.8273 49.2857 75.7753 49.1682C75.7529 49.1134 75.7232 49.0585 75.686 49.0037C75.6041 48.8783 75.5148 48.753 75.4032 48.6511C75.299 48.5414 75.1725 48.4631 75.0311 48.4239C74.8823 48.3847 74.7334 48.3847 74.5846 48.4239C74.3167 48.5023 74.0637 48.7451 73.9967 49.0429C73.9297 49.3406 73.8702 49.654 73.833 49.9595C73.8032 50.1789 73.7586 50.414 73.7735 50.6333C73.7735 50.743 73.7884 50.8606 73.8181 50.9702C73.8851 51.2053 74.0265 51.4168 74.2274 51.5422C74.659 51.8164 75.2023 51.6205 75.4925 51.221C75.5743 51.1113 75.6562 51.0016 75.7232 50.8762C75.7901 50.7509 75.8422 50.6098 75.8869 50.4688C75.9762 50.1633 75.9687 49.8577 75.9092 49.5443C75.872 49.3406 75.6934 49.1212 75.5222 49.0194C75.3436 48.9097 75.0757 48.8627 74.8748 48.9332C74.6739 49.0037 74.4804 49.1369 74.3762 49.3406L74.2944 49.5521C74.2572 49.7088 74.2572 49.8655 74.2944 50.0222C74.2944 50.0457 74.3018 50.0692 74.3018 50.0927L74.272 49.8577C74.2795 49.9282 74.2795 50.0066 74.272 50.0771L74.3018 49.842C74.2869 49.936 74.2646 50.0301 74.2274 50.1241L74.3093 49.9125C74.2721 49.9987 74.2274 50.0771 74.1753 50.1554L74.3093 49.9752C74.2721 50.0222 74.2348 50.0771 74.1828 50.1162L74.3539 49.9752C74.3539 49.9752 74.3093 50.0066 74.2869 50.0222L74.4879 49.936C74.4879 49.936 74.473 49.936 74.4581 49.936L74.6813 49.9047C74.6813 49.9047 74.6739 49.9047 74.6665 49.9047L74.8897 49.936H74.8748L75.0757 50.0222H75.0683L75.2395 50.1554H75.232L75.366 50.32C75.366 50.32 75.3585 50.3043 75.3511 50.2964L75.4329 50.508C75.4329 50.508 75.4181 50.461 75.4181 50.4453L75.4478 50.6804C75.4329 50.5393 75.4478 50.3905 75.4701 50.2416L75.4404 50.4766C75.485 50.1554 75.5446 49.8342 75.6115 49.513L74.2125 49.9047C74.2646 49.9517 74.3093 49.9987 74.3465 50.0536L74.2125 49.8734C74.2572 49.936 74.2944 49.9987 74.3241 50.0692L74.2423 49.8577C74.2646 49.9125 74.2795 49.9595 74.2869 50.0144C74.3316 50.2259 74.4953 50.4375 74.6739 50.5393C74.8525 50.6412 75.1204 50.696 75.3213 50.6255C75.5222 50.555 75.7157 50.4218 75.8199 50.2181C75.9315 50.0066 75.9539 49.7793 75.9018 49.5365L75.9092 49.5443Z" fill="#785BCE"/>
<path d="M86.8422 51.728C86.8125 51.5957 86.7606 51.4712 86.7012 51.3467C86.679 51.2922 86.6493 51.2377 86.6123 51.1832C86.5307 51.0587 86.4417 50.9342 86.323 50.833C86.2192 50.7241 86.0931 50.6462 85.9522 50.6073C85.8039 50.5684 85.6555 50.5684 85.5072 50.6073C85.2402 50.6851 84.9881 50.9264 84.9213 51.2222C84.8546 51.5179 84.7953 51.837 84.7508 52.1483C84.7211 52.3662 84.6766 52.5997 84.6914 52.8254C84.7137 53.1912 84.8323 53.5337 85.1438 53.7283C85.5814 54.0007 86.1154 53.7983 86.412 53.4092C86.59 53.1757 86.7161 52.95 86.8051 52.662C86.8941 52.374 86.8867 52.0471 86.8273 51.7358C86.7902 51.5335 86.6123 51.3156 86.4417 51.2144C86.2637 51.1054 85.9967 51.0587 85.7965 51.1288C85.5962 51.1988 85.4034 51.3311 85.2996 51.5335L85.218 51.7436C85.1809 51.8993 85.1809 52.0549 85.218 52.2106C85.218 52.2339 85.2254 52.2573 85.2254 52.2806L85.1957 52.0471C85.2031 52.125 85.2031 52.195 85.1957 52.2729L85.2254 52.0394C85.2106 52.1405 85.1883 52.2339 85.1512 52.3273L85.2328 52.1172C85.1957 52.2028 85.1512 52.2884 85.0993 52.3662L85.2328 52.1872C85.1957 52.2417 85.1512 52.2884 85.1067 52.3273L85.2773 52.1872C85.2773 52.1872 85.2328 52.2184 85.2106 52.2339L85.4108 52.1483C85.4108 52.1483 85.396 52.1483 85.3811 52.1561L85.6036 52.125C85.6036 52.125 85.5962 52.125 85.5888 52.125L85.8113 52.1561H85.7965L85.9967 52.2417H85.9893L86.1599 52.374H86.1524L86.2859 52.5375C86.2859 52.5375 86.2785 52.5219 86.2711 52.5141L86.3527 52.7243C86.3527 52.7243 86.3378 52.6776 86.3378 52.6542L86.3675 52.8877C86.3527 52.7398 86.3675 52.5919 86.3898 52.4519L86.3601 52.6853C86.4046 52.3585 86.4639 52.0316 86.5307 51.7125L85.1364 52.1016C85.1883 52.1483 85.2328 52.195 85.2773 52.2573L85.1438 52.0783C85.1883 52.1405 85.2254 52.2028 85.2551 52.2729L85.1735 52.0627C85.1957 52.1172 85.2106 52.1717 85.2254 52.2262C85.2699 52.4363 85.4331 52.6464 85.611 52.7476C85.789 52.8488 86.056 52.9033 86.2563 52.8332C86.4565 52.7632 86.6493 52.6309 86.7532 52.4285C86.8644 52.2184 86.8867 51.9927 86.8347 51.7514L86.8422 51.728Z" fill="#785BCE"/>
<path d="M62.0621 38.4849C58.3217 37.0803 56.6613 24.8053 61.3629 21.8171C66.2044 18.7394 76.5078 26.3352 75.931 30.3523C75.7475 31.6496 73.5015 32.9469 69.0184 35.5325C65.1207 37.7781 63.1544 38.8965 62.0621 38.4849V38.4849Z" fill="white"/>
<path d="M100.05 45.1109C103.95 45.228 109.989 34.8504 106.638 30.7111C103.226 26.4965 90.9314 29.8164 90.1635 33.5208C89.9541 34.5494 91.6818 36.5563 95.1373 40.5451C98.9592 44.9437 99.5962 45.1026 100.05 45.1193V45.1109Z" fill="white"/>
<path d="M96.7102 35.1853C96.8148 34.3759 97.5066 33.9134 97.8123 33.7015C99.1236 32.8054 101.231 32.8825 101.931 34.241C102.229 34.8288 102.164 35.4647 102.108 36.0814C101.971 37.4495 101.272 39.5404 100.153 39.656C99.5097 39.7234 98.9547 39.0008 97.8445 37.5459C97.0642 36.5246 96.6137 35.9272 96.7102 35.1853Z" fill="#AFA4FF"/>
<path d="M69.3886 30.5281C69.501 29.8448 68.9709 29.2355 68.738 28.9639C67.734 27.8113 65.7179 27.1856 64.6979 28.0665C64.2561 28.4452 64.1517 28.9803 64.0473 29.499C63.8143 30.6516 63.9268 32.5698 64.9549 33.0308C65.5412 33.2943 66.2641 32.8826 67.6938 32.0676C68.6978 31.4995 69.2842 31.1538 69.3886 30.5281V30.5281Z" fill="#AFA4FF"/>
<path d="M93.3902 71.7875C93.1007 74.2906 91.3296 75.9958 90.5463 76.7433C85.8122 81.296 78.3875 80.0108 75.1775 79.4564C72.4188 78.9777 63.1464 77.3733 61.0859 70.9643C60.9071 70.4015 60.3536 68.6208 60.9156 66.5629C62.4823 60.8595 71.3289 57.3736 78.5578 58.3983C86.2464 59.4903 94.0543 65.9581 93.3816 71.7791L93.3902 71.7875Z" fill="#9F98F9"/>
<path d="M69.7501 70.307C70.9958 71.9109 72.6762 73.1447 74.5072 73.8938C77.2661 75.0218 80.3344 74.7398 82.9847 73.4179C83.595 73.1095 83.7539 72.1841 83.4362 71.6113C83.0683 70.9504 82.3326 70.827 81.7223 71.1354C81.6303 71.1795 81.5384 71.2236 81.4464 71.2676C81.622 71.1883 81.438 71.2676 81.3544 71.3029C81.112 71.3998 80.8695 71.4967 80.6187 71.5672C80.0502 71.7523 79.4733 71.8845 78.8881 71.9286C77.6256 72.0255 76.3549 71.8404 75.176 71.3381C73.6461 70.686 72.5592 69.7518 71.5309 68.43C71.1045 67.8748 70.2015 67.9629 69.7584 68.43C69.2401 68.9763 69.332 69.743 69.7584 70.2982L69.7501 70.307Z" fill="#DCD7FF"/>
<path d="M77.2487 62.1126C77.3275 61.6292 77.2218 61.2097 77.0127 61.1756C76.8036 61.1415 76.5701 61.5057 76.4913 61.9891C76.4125 62.4724 76.5182 62.8919 76.7273 62.926C76.9365 62.9601 77.1699 62.5959 77.2487 62.1126Z" fill="#C8BDFF"/>
<path d="M80.8366 62.697C80.9154 62.2137 80.8097 61.7942 80.6006 61.7601C80.3914 61.726 80.158 62.0902 80.0792 62.5736C80.0004 63.0569 80.1061 63.4764 80.3152 63.5105C80.5243 63.5446 80.7578 63.1804 80.8366 62.697Z" fill="#C8BDFF"/>
<path d="M127.11 78H107.89C105.19 78 103 80.1688 103 82.8441V91.1559C103 93.8312 105.19 96 107.89 96H127.11C129.81 96 132 93.8312 132 91.1559V82.8441C132 80.1688 129.81 78 127.11 78Z" fill="#301FAD"/>
<path d="M107 102C107.215 101.798 109.478 99.5674 108.95 96.4696C108.63 94.5652 107.43 93.3913 107 93H116C115.843 94.0043 115.348 96.2935 113.509 98.4196C111.063 101.237 107.913 101.85 107 102Z" fill="#301FAD"/>
<path d="M113.506 90V84.1818H114.736V86.5824H117.233V84.1818H118.46V90H117.233V87.5966H114.736V90H113.506ZM119.452 90V85.6364H120.662V90H119.452ZM120.06 85.0739C119.88 85.0739 119.725 85.0142 119.597 84.8949C119.47 84.7737 119.406 84.6288 119.406 84.4602C119.406 84.2936 119.47 84.1506 119.597 84.0312C119.725 83.91 119.88 83.8494 120.06 83.8494C120.24 83.8494 120.393 83.91 120.52 84.0312C120.649 84.1506 120.713 84.2936 120.713 84.4602C120.713 84.6288 120.649 84.7737 120.52 84.8949C120.393 85.0142 120.24 85.0739 120.06 85.0739Z" fill="#AFA4FF"/>
</g>
</svg>
