<svg width="210" height="217" viewBox="0 0 210 217" fill="none" xmlns="http://www.w3.org/2000/svg">
<circle cx="105.5" cy="104.5" r="104.5" fill="#E3E0FF"/>
<mask id="mask0_1211_162049" style="mask-type:alpha" maskUnits="userSpaceOnUse" x="1" y="0" width="209" height="209">
<circle cx="105.5" cy="104.5" r="104" fill="#E3E0FF" stroke="black"/>
</mask>
<g mask="url(#mask0_1211_162049)">
<path d="M49.0188 102.855C48.9339 103.011 48.8588 103.17 48.8588 103.17C48.1745 104.658 48.3127 106.042 48.3261 106.328C48.4699 109.002 43.3287 115.144 44.1568 116.33C44.9849 117.515 52.114 114.123 55.8424 108.084C57.9872 104.619 57.607 102.553 57.4979 102.063C57.423 101.731 57.1016 100.274 55.945 99.5799C53.5703 98.1467 49.879 101.266 49.0151 102.866L49.0188 102.855Z" fill="#9F98F9"/>
<path d="M28.9509 93.9551C27.2796 97.6674 28.0849 101.882 29.1273 107.421C29.9175 111.568 31.0748 114.657 31.9118 116.596C33.0893 117.442 36.1013 119.28 40.4214 118.565C44.4507 117.892 47.4692 115.347 48.7538 114.143C52.7228 107.368 53.8005 99.1097 51.463 93.6027C48.6768 87.0281 42.318 87.3616 40.2714 87.4553C38.9498 87.5279 31.6697 87.9046 28.9509 93.9551Z" fill="#9F98F9"/>
<path d="M27.5656 112.345C30.3667 111.195 32.5689 113.223 37.4316 114.409C45.7687 116.454 49.2718 112.944 52.6346 114.475C59.5789 117.635 56.3068 137.853 53.685 157.783C47.3084 206.249 49.0475 219.994 38.5129 225.301C30.4172 229.374 20.2961 225.592 18.1731 224.793C16.3744 224.114 5.84278 219.98 1.30277 209.752C0.00183013 206.836 -1.42909 202.016 7.685 166.756C12.1332 149.527 11.3076 155.186 13.389 146.34C13.4233 146.238 13.4616 146.048 13.5228 145.79C15.5425 137.353 17.2633 133.981 22.6275 120.817C25.1118 114.713 25.6831 113.12 27.5807 112.338L27.5656 112.345Z" fill="#301FAD"/>
<path d="M71.4511 154.441C65.5228 155.94 55.0681 159.46 44.9817 168.117C40.4434 172.014 33.9686 178.651 29.1809 188.536C25.2247 196.685 22.2427 202.85 23.6446 208.177C27.9453 224.368 72.8529 225.16 88.832 225.455C114.173 225.915 182.259 227.156 188.591 203.334C192.333 189.233 174.477 169.534 165.864 162.223C158.95 156.354 151.81 153.189 150.859 152.763C143.493 149.551 136.864 148.453 132.385 148.051C132.872 163.818 124.889 177.966 112.129 183.824C109.634 184.97 94.2969 191.702 81.7038 182.253C73.4707 176.077 69.5027 165.294 71.4392 154.441H71.4511Z" fill="#301FAD"/>
<path d="M83.9257 150.138C80.7938 153.128 80.2617 162.773 80.5761 165.774C80.5882 165.895 80.6003 166.04 80.6366 166.209C80.6366 166.209 81.1324 169.632 83.3936 172.863C86.7553 177.65 105.74 191.454 104.978 193.238C104.156 195.155 77.2749 191.357 67.2383 173.322C64.0096 167.523 64.324 163.484 64.4208 162.495C65.3156 153.815 73.9133 148.522 78.0367 145.991C91.0118 138.01 108.655 136.575 124.012 142.784C129.78 145.111 145.427 151.187 146.455 162.495C147.29 171.67 138.027 179.169 133.528 182.81C122.597 191.659 110.384 192.985 104.978 193.238C114.58 187.186 120.203 177.216 118.703 168.113C115.922 151.211 89.7663 144.556 83.9257 150.138Z" fill="#4E44D8"/>
<path d="M126.632 108.902C126.512 121.588 127.669 131.737 128.765 138.78C130.416 149.308 132.14 153.802 130.838 161.876C129.043 172.938 123.427 179.933 122.017 181.617C118.426 185.897 113.786 191.434 107.194 192.098C95.7211 193.26 84.4051 179.092 80.8621 166.334C80.5608 165.231 80.2956 164.176 80.1149 163.026C78.8375 155.225 80.139 150.411 80.8621 142.278C81.2838 137.571 80.8982 138.069 81.2115 130.457C81.4646 124.315 82.0551 115.542 83.6218 104.693C84.4292 103.46 90.4789 94.4609 101.518 93.3938C111.737 92.3979 122.005 98.5988 126.632 108.902Z" fill="white"/>
<path d="M85.3336 126.794C87.6815 126.168 91.3798 133.307 92.645 135.739C94.2143 138.761 98.0707 146.189 95.3822 149.151C93.9223 150.752 91.6231 149.861 89.9929 152.088C88.9345 153.545 89.5428 154.436 88.5088 156.362C87.4382 158.348 85.0781 160.6 83.7399 160.166C82.0854 159.637 82.5477 155.194 83.3141 141.012C83.9102 130.092 83.9346 127.179 85.3336 126.794Z" fill="#AFA4FF"/>
<path d="M119.479 117.666C118.282 117.408 117.122 118.477 115.185 120.274C113.112 122.189 110.311 124.785 109.077 129.261C108.855 130.06 107.066 136.944 110.99 142.277C112.15 143.863 112.261 143.194 117.419 147.752C121.663 151.499 122.663 152.897 123.712 152.568C125.414 152.028 125.266 147.552 125.143 143.581C125.007 139.458 124.526 137.249 123.169 129.778C121.54 120.826 121.17 118.042 119.479 117.666Z" fill="#AFA4FF"/>
<path d="M112.936 170.472C116.179 167.089 123.216 167.077 124.832 169.714C125.976 171.57 124.282 174.546 123.047 176.708C118.154 185.285 108.537 190.389 107.1 188.85C106.562 188.273 107.605 187.243 109.143 182.886C111.87 175.18 110.613 172.894 112.936 170.472Z" fill="#AFA4FF"/>
<path d="M96.3834 176.816C94.615 177.596 91.8379 174.866 90.7105 173.429C89.4406 171.825 88.0639 169.073 89.0252 168.148C89.7848 167.413 91.743 168.093 93.3689 168.639C94.9473 169.185 96.0392 169.552 96.8106 170.521C98.4009 172.493 98.033 176.092 96.3834 176.816Z" fill="#AFA4FF"/>
<path d="M97.776 11.6654C100.253 10.4325 103.441 11.5245 105.127 13.6028C107.226 16.1977 107.088 20.4365 104.451 23.4306C105.116 26.8005 106.263 32.8593 106.802 37.4973C106.824 37.6499 106.996 38.554 106.951 39.7752C106.744 44.8359 106.618 46.6089 105.414 47.3369C103.797 48.3114 101.251 46.8085 100.024 45.9866C100.219 39.8221 99.5421 44.2957 100.31 40.7145C100.31 40.7145 103.223 27.188 100.735 23.7594H100.723V23.7359C100.299 23.8298 98.3953 24.2056 96.8241 23.0197C95.8378 22.2682 95.4708 21.2584 95.2759 20.6948C94.4043 18.1938 94.4158 13.3092 97.753 11.6419L97.776 11.6654Z" fill="#AFA4FF"/>
<path d="M142.006 18.7332C140.047 16.7997 136.729 16.8344 134.521 18.2585C131.769 20.03 130.636 24.0477 132.222 27.6833C130.591 30.6357 127.715 35.9618 125.812 40.1415C125.755 40.2689 125.314 41.0678 124.997 42.2372C123.683 47.0538 123.264 48.7558 124.181 49.8094C125.404 51.222 128.247 50.6199 129.64 50.2262C131.293 44.3908 130.602 48.7905 130.942 45.1897C130.942 45.1897 132.233 31.5852 135.596 29.1537H135.619C135.981 29.3621 137.669 30.3115 139.492 29.6747C140.636 29.2811 141.293 28.4474 141.632 27.9843C143.195 25.9118 144.645 21.3268 142.006 18.7217V18.7332Z" fill="#AFA4FF"/>
<path d="M77.7874 98.9587C77.1685 97.243 76.8471 95.4563 76.6567 93.362C75.9664 85.3989 78.3587 78.2522 79.1799 75.7911C84.4247 60.0937 87.186 52.0635 87.4637 51.7006C93.1053 44.7788 104.317 38.1172 116.933 40.5665C129.525 43.0158 137.238 53.3217 139.868 61.4504C141.011 65.0001 139.452 62.752 140.297 82.216C140.487 86.6058 140.892 94.1074 137.631 101.609C137.405 102.13 137.119 102.816 136.619 103.703C133.394 109.466 128.407 112.755 124.967 114.542C121.646 115.926 113.767 118.683 103.698 117.204C93.2005 115.666 86.2497 110.4 83.5241 108.081C81.8341 106.389 79.3703 103.337 77.7874 98.9468V98.9587Z" fill="white"/>
<path d="M105.374 69.0317C105.333 68.8461 105.26 68.6714 105.188 68.5077C105.157 68.4313 105.115 68.3548 105.063 68.2784C104.949 68.1038 104.825 67.9291 104.669 67.7872C104.524 67.6343 104.348 67.5252 104.151 67.4706C103.944 67.416 103.736 67.416 103.529 67.4706C103.156 67.5798 102.803 67.9182 102.71 68.333C102.616 68.7478 102.533 69.1845 102.482 69.6102C102.44 69.9159 102.378 70.2434 102.399 70.5491C102.399 70.7019 102.419 70.8657 102.461 71.0185C102.554 71.346 102.751 71.6407 103.031 71.8154C103.633 72.1975 104.389 71.9246 104.794 71.3678C104.908 71.215 105.022 71.0622 105.115 70.8875C105.209 70.7128 105.281 70.5163 105.343 70.3198C105.468 69.8941 105.457 69.4683 105.374 69.0317C105.323 68.7478 105.074 68.4422 104.835 68.3003C104.586 68.1474 104.213 68.0819 103.933 68.1802C103.653 68.2784 103.384 68.464 103.239 68.7478L103.124 69.0426C103.073 69.2609 103.073 69.4792 103.124 69.6976C103.124 69.7303 103.135 69.7631 103.135 69.7958L103.093 69.4683C103.104 69.5666 103.104 69.6757 103.093 69.774L103.135 69.4465C103.114 69.5775 103.083 69.7085 103.031 69.8395L103.145 69.5447C103.093 69.6648 103.031 69.774 102.959 69.8832L103.145 69.6321C103.093 69.6976 103.042 69.774 102.969 69.8286L103.207 69.6321C103.207 69.6321 103.145 69.6757 103.114 69.6976L103.394 69.5775C103.394 69.5775 103.373 69.5775 103.353 69.5775L103.664 69.5338C103.664 69.5338 103.653 69.5338 103.643 69.5338L103.954 69.5775H103.933L104.213 69.6976H104.203L104.441 69.8832H104.431L104.618 70.1124C104.618 70.1124 104.607 70.0906 104.597 70.0797L104.711 70.3744C104.711 70.3744 104.69 70.3089 104.69 70.2871L104.732 70.6146C104.711 70.4181 104.732 70.2107 104.763 70.0032L104.721 70.3307C104.783 69.8832 104.866 69.4356 104.96 68.988L103.01 69.5338C103.083 69.5993 103.145 69.6648 103.197 69.7412L103.01 69.4902C103.073 69.5775 103.124 69.6648 103.166 69.7631L103.052 69.4683C103.083 69.5447 103.104 69.6102 103.114 69.6867C103.176 69.9814 103.404 70.2762 103.653 70.4181C103.902 70.56 104.275 70.6364 104.555 70.5382C104.835 70.4399 105.105 70.2543 105.25 69.9705C105.406 69.6757 105.437 69.3592 105.364 69.0208L105.374 69.0317Z" fill="#785BCE"/>
<path d="M120.606 72.0742C120.565 71.8899 120.493 71.7164 120.41 71.5428C120.379 71.4669 120.338 71.391 120.286 71.3151C120.172 71.1416 120.048 70.9681 119.883 70.8271C119.738 70.6753 119.563 70.5669 119.366 70.5127C119.16 70.4584 118.953 70.4584 118.746 70.5127C118.374 70.6211 118.023 70.9573 117.93 71.3693C117.837 71.7814 117.754 72.226 117.692 72.6598C117.651 72.9634 117.589 73.2888 117.61 73.6032C117.641 74.1129 117.806 74.5901 118.24 74.8612C118.85 75.2407 119.594 74.9588 120.007 74.4166C120.255 74.0912 120.431 73.7767 120.555 73.3755C120.679 72.9743 120.668 72.5188 120.586 72.0851C120.534 71.8031 120.286 71.4995 120.048 71.3585C119.8 71.2067 119.428 71.1416 119.149 71.2392C118.87 71.3368 118.602 71.5212 118.457 71.8031L118.343 72.0959C118.292 72.3128 118.292 72.5297 118.343 72.7466C118.343 72.7791 118.354 72.8116 118.354 72.8441L118.312 72.5188C118.323 72.6273 118.323 72.7249 118.312 72.8333L118.354 72.508C118.333 72.649 118.302 72.7791 118.25 72.9092L118.364 72.6164C118.312 72.7357 118.25 72.855 118.178 72.9634L118.364 72.714C118.312 72.7899 118.25 72.855 118.188 72.9092L118.426 72.714C118.426 72.714 118.364 72.7574 118.333 72.7791L118.612 72.6598C118.612 72.6598 118.591 72.6598 118.571 72.6706L118.881 72.6273C118.881 72.6273 118.87 72.6273 118.86 72.6273L119.17 72.6706H119.149L119.428 72.7899H119.418L119.656 72.9743H119.645L119.831 73.202C119.831 73.202 119.821 73.1803 119.811 73.1695L119.924 73.4623C119.924 73.4623 119.904 73.3972 119.904 73.3647L119.945 73.69C119.924 73.484 119.945 73.2779 119.976 73.0827L119.935 73.408C119.997 72.9526 120.079 72.4971 120.172 72.0525L118.23 72.5947C118.302 72.6598 118.364 72.7249 118.426 72.8116L118.24 72.5622C118.302 72.649 118.354 72.7357 118.395 72.8333L118.281 72.5405C118.312 72.6164 118.333 72.6923 118.354 72.7682C118.416 73.061 118.643 73.3538 118.891 73.4948C119.139 73.6358 119.511 73.7117 119.79 73.6141C120.069 73.5165 120.338 73.3321 120.482 73.0502C120.637 72.7574 120.668 72.4429 120.596 72.1067L120.606 72.0742Z" fill="#785BCE"/>
<path d="M86.0798 53.6221C80.8683 51.665 78.5548 34.5618 85.1057 30.3982C91.8515 26.11 106.208 36.6935 105.404 42.2907C105.148 44.0982 102.019 45.9058 95.7723 49.5084C90.3416 52.6373 87.6019 54.1955 86.0798 53.6221Z" fill="white"/>
<path d="M139.01 62.8545C144.444 63.0177 152.858 48.5582 148.189 42.7908C143.435 36.9184 126.305 41.5441 125.235 46.7056C124.943 48.1388 127.35 50.9351 132.165 56.4928C137.49 62.6215 138.378 62.8429 139.01 62.8662V62.8545Z" fill="white"/>
<path d="M134.356 49.0252C134.502 47.8975 135.466 47.2531 135.892 46.9577C137.719 45.7092 140.655 45.8166 141.63 47.7095C142.045 48.5284 141.956 49.4145 141.877 50.2737C141.687 52.18 140.711 55.0932 139.153 55.2543C138.257 55.3483 137.483 54.3414 135.936 52.3143C134.849 50.8912 134.221 50.0589 134.356 49.0252Z" fill="#AFA4FF"/>
<path d="M96.2874 42.5358C96.4441 41.5837 95.7055 40.7349 95.3809 40.3563C93.982 38.7504 91.173 37.8786 89.7517 39.106C89.1361 39.6337 88.9907 40.3793 88.8452 41.1019C88.5206 42.7079 88.6773 45.3806 90.1098 46.023C90.9268 46.39 91.934 45.8165 93.926 44.6809C95.3249 43.8894 96.1419 43.4076 96.2874 42.5358Z" fill="#AFA4FF"/>
<path d="M129.731 100.024C129.327 103.512 126.86 105.887 125.768 106.929C119.172 113.272 108.827 111.482 104.354 110.709C100.511 110.042 87.5912 107.807 84.7202 98.8769C84.471 98.0928 83.6999 95.6116 84.4829 92.7442C86.6658 84.7975 98.9921 79.9405 109.064 81.3683C119.777 82.8898 130.656 91.9016 129.719 100.012L129.731 100.024Z" fill="#9F98F9"/>
<path d="M96.7917 97.9611C98.5274 100.196 100.869 101.915 103.42 102.959C107.264 104.53 111.539 104.137 115.232 102.296C116.082 101.866 116.304 100.577 115.861 99.7784C115.348 98.8575 114.323 98.6856 113.473 99.1153C113.345 99.1767 113.217 99.2381 113.089 99.2995C113.333 99.189 113.077 99.2995 112.96 99.3486C112.623 99.4837 112.285 99.6188 111.935 99.717C111.143 99.9748 110.339 100.159 109.524 100.22C107.765 100.355 105.994 100.098 104.352 99.3977C102.22 98.4891 100.706 97.1875 99.273 95.3457C98.6789 94.5721 97.4208 94.6949 96.8034 95.3457C96.0811 96.107 96.2093 97.1753 96.8034 97.9488L96.7917 97.9611Z" fill="#DCD7FF"/>
<path d="M107.24 86.5433C107.35 85.8698 107.203 85.2854 106.912 85.2378C106.62 85.1903 106.295 85.6978 106.185 86.3712C106.075 87.0447 106.223 87.6292 106.514 87.6767C106.805 87.7242 107.131 87.2167 107.24 86.5433Z" fill="#C8BDFF"/>
<path d="M112.24 87.3581C112.35 86.6846 112.203 86.1001 111.912 86.0526C111.62 86.0051 111.295 86.5126 111.185 87.186C111.075 87.8595 111.223 88.4439 111.514 88.4914C111.805 88.539 112.131 88.0315 112.24 87.3581Z" fill="#C8BDFF"/>
<path d="M176.714 108.68H149.935C146.172 108.68 143.121 111.702 143.121 115.429V127.01C143.121 130.738 146.172 133.76 149.935 133.76H176.714C180.477 133.76 183.528 130.738 183.528 127.01V115.429C183.528 111.702 180.477 108.68 176.714 108.68Z" fill="#301FAD"/>
<path d="M148.693 142.12C148.993 141.838 152.146 138.731 151.41 134.414C150.965 131.761 149.293 130.125 148.693 129.58H161.233C161.015 130.979 160.325 134.169 157.762 137.131C154.355 141.057 149.966 141.911 148.693 142.12Z" fill="#301FAD"/>
<path d="M151.181 125.467V115.285H155.258C156.007 115.285 156.631 115.396 157.132 115.618C157.632 115.84 158.008 116.148 158.26 116.543C158.512 116.934 158.638 117.385 158.638 117.895C158.638 118.293 158.559 118.642 158.4 118.944C158.241 119.242 158.022 119.488 157.743 119.68C157.468 119.869 157.153 120.003 156.799 120.082V120.182C157.187 120.198 157.549 120.308 157.888 120.51C158.229 120.712 158.506 120.996 158.718 121.36C158.93 121.721 159.036 122.152 159.036 122.653C159.036 123.193 158.902 123.675 158.633 124.099C158.368 124.52 157.975 124.854 157.455 125.099C156.935 125.344 156.293 125.467 155.531 125.467H151.181ZM153.334 123.707H155.089C155.688 123.707 156.126 123.592 156.401 123.364C156.676 123.132 156.814 122.823 156.814 122.439C156.814 122.157 156.746 121.909 156.61 121.693C156.474 121.478 156.28 121.309 156.028 121.186C155.78 121.064 155.483 121.002 155.138 121.002H153.334V123.707ZM153.334 119.546H154.929C155.224 119.546 155.486 119.494 155.715 119.391C155.947 119.285 156.129 119.136 156.262 118.944C156.398 118.752 156.466 118.521 156.466 118.253C156.466 117.885 156.335 117.588 156.073 117.363C155.814 117.138 155.446 117.025 154.969 117.025H153.334V119.546ZM161.704 128.33C161.436 128.33 161.184 128.309 160.949 128.266C160.717 128.226 160.525 128.175 160.372 128.112L160.849 126.531C161.098 126.607 161.322 126.648 161.521 126.655C161.723 126.662 161.897 126.615 162.043 126.516C162.192 126.416 162.313 126.247 162.405 126.009L162.53 125.685L159.79 117.83H162.018L163.599 123.438H163.678L165.274 117.83H167.516L164.548 126.292C164.406 126.703 164.212 127.061 163.967 127.366C163.725 127.674 163.418 127.911 163.047 128.077C162.676 128.246 162.228 128.33 161.704 128.33ZM171.834 125.616C171.049 125.616 170.372 125.457 169.806 125.139C169.242 124.817 168.808 124.363 168.503 123.776C168.198 123.186 168.046 122.489 168.046 121.683C168.046 120.898 168.198 120.208 168.503 119.615C168.808 119.022 169.237 118.559 169.791 118.228C170.348 117.897 171.001 117.731 171.75 117.731C172.253 117.731 172.722 117.812 173.157 117.974C173.594 118.134 173.975 118.374 174.3 118.695C174.628 119.017 174.883 119.421 175.066 119.908C175.248 120.392 175.339 120.959 175.339 121.609V122.19H168.891V120.878H173.345C173.345 120.573 173.279 120.303 173.147 120.068C173.014 119.832 172.83 119.648 172.595 119.516C172.363 119.38 172.093 119.312 171.784 119.312C171.463 119.312 171.178 119.386 170.929 119.536C170.684 119.681 170.492 119.879 170.353 120.127C170.213 120.372 170.142 120.646 170.139 120.947V122.195C170.139 122.573 170.208 122.9 170.348 123.175C170.49 123.45 170.691 123.662 170.949 123.811C171.208 123.96 171.514 124.035 171.869 124.035C172.104 124.035 172.32 124.002 172.515 123.935C172.711 123.869 172.878 123.77 173.017 123.637C173.157 123.505 173.263 123.342 173.335 123.15L175.294 123.279C175.195 123.75 174.991 124.161 174.683 124.512C174.378 124.86 173.983 125.132 173.5 125.327C173.019 125.52 172.464 125.616 171.834 125.616Z" fill="#AFA4FF"/>
</g>
</svg>
