<svg width="209" height="209" viewBox="0 0 209 209" fill="none" xmlns="http://www.w3.org/2000/svg">
<circle cx="104.5" cy="104.5" r="104.5" fill="#221D7E"/>
<mask id="mask0_1414_217632" style="mask-type:alpha" maskUnits="userSpaceOnUse" x="0" y="0" width="209" height="209">
<circle cx="104.5" cy="104.5" r="104.5" fill="#C4C4C4"/>
</mask>
<g mask="url(#mask0_1414_217632)">
<path d="M19.7632 155.566C31.5972 155.566 41.1905 145.961 41.1905 134.112C41.1905 122.263 31.5972 112.658 19.7632 112.658C7.92927 112.658 -1.66406 122.263 -1.66406 134.112C-1.66406 145.961 7.92927 155.566 19.7632 155.566Z" fill="url(#paint0_linear_1414_217632)"/>
<path d="M168.298 153.98C180.132 153.98 189.726 144.375 189.726 132.526C189.726 120.677 180.132 111.072 168.298 111.072C156.464 111.072 146.871 120.677 146.871 132.526C146.871 144.375 156.464 153.98 168.298 153.98Z" fill="url(#paint1_linear_1414_217632)"/>
<path d="M32.4218 194.465C51.3419 194.465 66.6796 179.109 66.6796 160.165C66.6796 141.222 51.3419 125.865 32.4218 125.865C13.5018 125.865 -1.83594 141.222 -1.83594 160.165C-1.83594 179.109 13.5018 194.465 32.4218 194.465Z" fill="url(#paint2_linear_1414_217632)"/>
<path d="M198.254 179.686C217.174 179.686 232.512 164.329 232.512 145.386C232.512 126.443 217.174 111.086 198.254 111.086C179.334 111.086 163.996 126.443 163.996 145.386C163.996 164.329 179.334 179.686 198.254 179.686Z" fill="url(#paint3_linear_1414_217632)"/>
<path d="M86.8096 228.217C115.639 228.217 139.01 204.817 139.01 175.952C139.01 147.087 115.639 123.688 86.8096 123.688C57.9802 123.688 34.6094 147.087 34.6094 175.952C34.6094 204.817 57.9802 228.217 86.8096 228.217Z" fill="url(#paint4_linear_1414_217632)"/>
<path d="M163.549 236.595C194.351 236.595 219.32 211.594 219.32 180.754C219.32 149.915 194.351 124.914 163.549 124.914C132.747 124.914 107.777 149.915 107.777 180.754C107.777 211.594 132.747 236.595 163.549 236.595Z" fill="url(#paint5_linear_1414_217632)"/>
<path d="M-0.986759 156.661C10.8472 156.661 20.4405 147.056 20.4405 135.208C20.4405 123.359 10.8472 113.754 -0.986759 113.754C-12.8207 113.754 -22.4141 123.359 -22.4141 135.208C-22.4141 147.056 -12.8207 156.661 -0.986759 156.661Z" fill="url(#paint6_linear_1414_217632)"/>
<path d="M-10.0882 131.921C-2.66808 131.921 3.3471 125.899 3.3471 118.469C3.3471 111.04 -2.66808 105.018 -10.0882 105.018C-17.5083 105.018 -23.5234 111.04 -23.5234 118.469C-23.5234 125.899 -17.5083 131.921 -10.0882 131.921Z" fill="url(#paint7_linear_1414_217632)"/>
<g opacity="0.35">
<path opacity="0.35" d="M169.324 49.7969V71.5246" stroke="#E9E3FF" stroke-width="0.77" stroke-miterlimit="10"/>
<path opacity="0.35" d="M175.774 60.8984H162.871" stroke="#E9E3FF" stroke-width="0.77" stroke-miterlimit="10"/>
</g>
<g opacity="0.42">
<path opacity="0.42" d="M36.6367 56.7891V70.7888" stroke="#E9E3FF" stroke-width="0.5" stroke-miterlimit="10"/>
<path opacity="0.42" d="M40.7854 63.9414H32.4766" stroke="#E9E3FF" stroke-width="0.5" stroke-miterlimit="10"/>
</g>
<path d="M180.496 81.977C182.627 81.977 182.642 78.6465 180.496 78.6465C178.35 78.6465 178.35 81.977 180.496 81.977Z" fill="#E9E3FF"/>
<path d="M164.673 85.7684C165.378 85.7684 165.393 84.6582 164.673 84.6582C163.953 84.6582 163.953 85.7684 164.673 85.7684Z" fill="#E9E3FF"/>
<path d="M18.5408 92.7173C21.392 92.7173 21.392 88.291 18.5408 88.291C15.6895 88.291 15.6895 92.7173 18.5408 92.7173Z" fill="#E9E3FF"/>
<path d="M33.9911 96.279C35.4167 96.279 35.4167 94.0586 33.9911 94.0586C32.5655 94.0586 32.5655 96.279 33.9911 96.279Z" fill="#E9E3FF"/>
<path d="M5.04577 102.912C6.47137 102.912 6.47137 100.691 5.04577 100.691C3.62016 100.691 3.62016 102.912 5.04577 102.912Z" fill="#E9E3FF"/>
<path d="M190.68 95.3559C192.811 95.3559 192.825 92.0254 190.68 92.0254C188.534 92.0254 188.534 95.3559 190.68 95.3559Z" fill="#E9E3FF"/>
<path d="M91.5178 146.44C84.793 143.455 74.8281 151.918 68.6937 157.123C65.6121 159.747 58.9304 165.976 53.9768 176.285C50.2904 183.94 47.5112 189.722 48.8216 194.711C53.0408 210.714 99.121 210.887 109.561 210.931C114.126 210.945 197.776 210.772 202.355 185.757C204.242 175.477 192.361 163.092 181.345 151.587C177.256 147.319 172.547 143.239 165.88 140.528C160.249 138.236 157.197 136.996 153.87 137.731C142.264 140.312 145.878 163.049 131.276 171.844C122.766 176.977 109.863 176.285 102.937 170.373C93.9802 162.732 98.833 149.669 91.5322 146.425L91.5178 146.44Z" fill="#301FAD"/>
<path d="M102.246 105.925C100.057 108.376 96.0535 112.197 89.9911 114.576C88.0902 115.325 73.0134 120.963 63.5093 112.312C59.0021 108.203 57.9077 102.897 57.6197 101.383C57.5045 100.778 55.9781 92.1559 61.1909 85.019C64.6181 80.3188 67.8149 80.5783 76.2102 72.7782C77.823 71.2788 79.3206 70.284 80.6598 68.3087C83.6694 63.8968 83.5254 59.5282 83.8566 57.2646C85.1094 48.6716 97.7959 39.8046 109.806 39.2134C127.359 38.3484 140.204 55.3326 141.831 65.3819C142.206 67.6743 142.825 74.8688 142.019 83.4331C141.846 85.2353 141.673 86.432 141.587 87.1529C140.089 98.8025 142.695 111.649 144.409 123.226C146.454 137.01 147.491 143.902 146.799 147.174C143.631 162.414 128.295 177.784 116.43 174.814C107.127 172.478 102.951 159.631 102.26 157.31C100.158 150.318 101.425 145.502 102.26 135.756C102.865 128.734 103.297 118.555 102.26 105.925H102.246Z" fill="white"/>
<path d="M67.2671 79.7559C70.7519 79.7559 75.6911 80.2605 80.8752 82.7404C95.5776 89.7907 98.9905 106.386 99.4369 108.736C96.744 111.302 89.8608 117.141 79.6944 118.064C75.7199 118.425 68.8079 119.059 63.0047 114.373C56.8991 109.457 56.1503 102.003 56.0063 100.619C55.4879 95.4425 57.0431 91.4776 57.7199 89.9349C60.5279 83.6343 65.5823 80.6498 67.2671 79.7559Z" fill="#9F98F9"/>
<path d="M83.3115 73.9885C83.2395 73.8011 83.1675 73.6137 83.0667 73.4551C82.9659 73.3109 82.8507 73.1523 82.7211 73.0225C82.5627 72.8639 82.3899 72.7342 82.1883 72.6188C81.8139 72.3881 81.3099 72.4026 80.9355 72.6188C80.5611 72.8351 80.3451 73.2532 80.3163 73.7002C80.2731 74.4499 80.2155 75.2285 80.3739 75.9638C80.4027 76.1079 80.4747 76.2665 80.5467 76.3963C80.6475 76.5837 80.8491 76.8 81.0363 76.9009C81.4539 77.1316 81.9723 77.146 82.3899 76.9009C82.6635 76.7279 82.8939 76.4828 83.0523 76.1945C83.1963 75.9349 83.3259 75.6322 83.3691 75.3438C83.4411 74.8968 83.47 74.4499 83.2972 74.0174C83.254 73.8588 83.1819 73.7146 83.0811 73.5992C82.9947 73.4695 82.8795 73.3541 82.7355 73.282C82.4619 73.1234 82.0731 73.0658 81.7707 73.1523C81.4683 73.2388 81.1803 73.4406 81.0219 73.729C80.8635 74.0174 80.7771 74.3778 80.8923 74.695C80.9211 74.7959 80.9499 74.8824 80.9643 74.9834L80.9211 74.6517C80.9211 74.7671 80.9211 74.8824 80.9211 74.9978L80.9643 74.6662C80.9499 74.8103 80.9067 74.9545 80.8491 75.0843L80.9787 74.7815C80.9355 74.8824 80.8779 74.9834 80.8059 75.0699L81.0075 74.8103C81.0075 74.8103 80.9355 74.8968 80.8923 74.9257L81.1515 74.7238C81.1515 74.7238 81.1227 74.7527 81.0939 74.7527L81.3963 74.6229H81.3675L81.6987 74.5797C81.6987 74.5797 81.6987 74.5797 81.6843 74.5797L82.0155 74.6229L82.3179 74.7383L82.5771 74.9257H82.5627L82.7643 75.1564C82.7643 75.1564 82.7355 75.1275 82.7355 75.0987L82.8651 75.4015C82.8363 75.3294 82.8219 75.2429 82.8075 75.1708L82.8507 75.5024C82.7787 74.9113 82.8219 74.2769 82.8507 73.6857L80.9787 74.7671C80.9787 74.7671 81.0795 74.8248 81.1227 74.868L80.8635 74.6662C80.9499 74.7383 81.0363 74.8248 81.1083 74.9113L80.9067 74.6517C80.9643 74.7382 81.0075 74.8103 81.0507 74.9113L80.9211 74.6085V74.6373C80.9787 74.7959 81.0507 74.9401 81.1515 75.0554C81.2379 75.1852 81.3531 75.3005 81.4971 75.3726C81.7707 75.5312 82.1595 75.5889 82.4619 75.5024C82.7643 75.4159 83.0523 75.214 83.2107 74.9257C83.3691 74.6373 83.4556 74.2625 83.3404 73.9597L83.3115 73.9885Z" fill="#301FAD"/>
<path d="M98.99 74.7393C98.918 74.5518 98.846 74.3644 98.7308 74.2058C98.63 74.0472 98.5148 73.903 98.3852 73.7733C98.2268 73.6147 98.0396 73.4705 97.8524 73.3552C97.478 73.1245 96.974 73.1389 96.5996 73.3552C96.2252 73.5714 96.0092 73.9895 95.9804 74.4365C95.9372 75.1862 95.8796 75.9792 96.038 76.7289C96.0668 76.8875 96.1388 77.0317 96.2108 77.1615C96.3116 77.3489 96.5132 77.5652 96.7004 77.6661C97.118 77.8968 97.6364 77.9112 98.054 77.6661C98.3276 77.4931 98.558 77.248 98.7164 76.9596C98.8604 76.7001 98.99 76.3973 99.0332 76.0945C99.1052 75.6476 99.134 75.1862 98.9612 74.7537C98.918 74.5951 98.846 74.4509 98.7452 74.3356C98.6588 74.2058 98.5436 74.0905 98.3996 74.0184C98.126 73.8598 97.7372 73.8021 97.4348 73.8886C97.1324 73.9751 96.8444 74.177 96.686 74.4653C96.5276 74.7537 96.4412 75.1141 96.5564 75.4313C96.5852 75.5322 96.614 75.6188 96.6284 75.7197L96.5852 75.3881C96.5852 75.5034 96.5852 75.6188 96.5852 75.7485L96.6284 75.4169C96.614 75.5611 96.5708 75.7053 96.5132 75.8494L96.6428 75.5467C96.5996 75.6476 96.542 75.7485 96.47 75.8494L96.6716 75.5899C96.6716 75.5899 96.5996 75.6764 96.5564 75.7053L96.8156 75.5034C96.8156 75.5034 96.7868 75.5322 96.758 75.5322L97.0604 75.4025H97.0316L97.3628 75.3592C97.3628 75.3592 97.3628 75.3592 97.3484 75.3592L97.6796 75.4025L97.982 75.5178L98.2412 75.7053H98.2268L98.4284 75.9359C98.4284 75.9359 98.3996 75.8927 98.3996 75.8783L98.5292 76.1811C98.5004 76.109 98.486 76.0225 98.4716 75.9504L98.5148 76.282C98.4284 75.6764 98.486 75.042 98.5148 74.4365L96.6428 75.5178C96.6428 75.5178 96.7436 75.5755 96.7868 75.6188L96.5276 75.4169C96.614 75.489 96.7004 75.5755 96.7724 75.662L96.5708 75.4025C96.6284 75.489 96.686 75.5755 96.7148 75.662L96.5852 75.3592V75.3881C96.6428 75.5467 96.7148 75.6908 96.8156 75.8062C96.902 75.9359 97.0172 76.0513 97.1612 76.1234C97.4348 76.282 97.8236 76.3396 98.126 76.2531C98.4284 76.1666 98.7164 75.9648 98.8748 75.6764C99.0332 75.3881 99.1196 75.0132 99.0044 74.7104L98.99 74.7393Z" fill="#301FAD"/>
<path d="M60.5564 100.791C65.5388 105.188 72.8973 105.996 78.4557 102.161C79.1901 101.656 79.5213 100.704 79.0461 99.8825C78.6141 99.1472 77.5197 98.7723 76.7709 99.2914C74.3085 100.993 71.2845 101.786 68.3181 101.151C66.9789 100.863 65.8412 100.402 64.6748 99.7095C64.2284 99.45 63.8108 99.1472 63.3932 98.8588C63.062 98.6137 63.6524 99.0751 63.3788 98.8444C63.3356 98.8012 63.278 98.7579 63.2348 98.7291C63.1196 98.6426 63.0188 98.5417 62.918 98.4551C62.2412 97.864 61.2332 97.7919 60.5708 98.4551C59.966 99.0607 59.894 100.214 60.5708 100.805L60.5564 100.791Z" fill="#C8BDFF"/>
<path d="M77.7067 56.9765C75.1002 49.7532 89.3707 32.7401 107.414 30.1016C108.796 29.8998 125.947 27.665 137.352 39.9346C138.878 41.5782 146.021 49.2486 145.646 60.5666C145.473 65.9733 143.659 70.1545 142.377 72.5478C132.902 68.0639 125.313 66.7807 120.072 66.4635C116.63 66.2616 114.542 66.4779 109.214 65.9156C101.496 65.0938 100.934 64.0845 94.4971 63.7097C89.2411 63.4069 87.8299 63.9692 84.8491 62.7869C84.2875 62.5707 78.9451 60.3936 77.7211 56.9765H77.7067Z" fill="#7F7FF4"/>
<path d="M79.4232 69.8222C76.6728 69.9087 70.2503 69.7069 64.4759 65.3527C62.8631 64.1416 58.0247 60.4939 58.7735 57.4228C59.7959 53.184 70.9991 52.2901 76.8024 52.4487C82.7064 52.6073 94.9896 54.15 109.188 65.9006C104.292 64.9778 100.13 64.6895 97.0345 64.6174C84.9384 64.329 81.6696 67.227 80.6328 68.2939C80.0568 68.8851 79.6536 69.4329 79.3944 69.8222H79.4232Z" fill="#4E44D8"/>
<path d="M114.585 67.0387C113.318 61.5743 125.889 50.9484 131.865 54.0482C136.905 56.6578 137.812 69.2735 132.47 72.8059C128.64 75.3434 122.563 72.5896 120.532 71.6813C117.796 70.4413 115.104 69.2302 114.585 67.0387Z" fill="white"/>
<path d="M62.0682 26.8004C62.9179 24.2773 65.8123 22.8067 68.3467 23.0229C71.5147 23.2969 74.2651 26.1948 74.4955 29.9867C77.2027 31.7601 82.0555 34.9753 85.5404 37.6715C85.6556 37.758 86.3756 38.2338 87.1676 39.0844C90.4364 42.5735 91.5452 43.8423 91.214 45.1543C90.782 46.9133 88.046 47.6775 86.6636 47.9803C82.6603 43.7702 85.1948 47.1873 83.3228 44.2893C83.3228 44.2893 76.1947 33.3317 72.2203 32.7694H72.1915C71.9755 33.1154 70.9387 34.687 69.0667 34.9753C67.9003 35.1628 66.9643 34.7446 66.4603 34.4995C64.1851 33.447 60.9162 30.2174 62.0538 26.8004H62.0682Z" fill="#AFA4FF"/>
<path d="M94.3687 20.2679C95.9383 18.1196 99.1495 17.5862 101.497 18.5666C104.434 19.7777 106.177 23.3821 105.255 27.0731C107.3 29.5818 110.958 34.1235 113.463 37.7568C113.55 37.8721 114.097 38.5498 114.586 39.6023C116.646 43.9276 117.322 45.4559 116.602 46.6093C115.652 48.1521 112.815 48.0511 111.418 47.9214C108.87 42.6877 110.266 46.7247 109.345 43.3942C109.345 43.3942 105.874 30.7785 102.246 29.0484H102.217C101.9 29.3079 100.431 30.4902 98.5735 30.1874C97.4071 30 96.6439 29.3223 96.2263 28.9474C94.3831 27.2461 92.2375 23.1803 94.3543 20.2823L94.3687 20.2679Z" fill="#AFA4FF"/>
<path d="M109.029 120.644C111.002 120.486 112.816 125.546 113.45 127.277C116.517 135.812 112.067 143.151 111.606 143.857C110.944 144.924 107.43 150.475 105.342 149.754C101.051 148.283 104.521 120.99 109.029 120.644Z" fill="#AFA4FF"/>
<path d="M133.696 88.5799C131.709 92.5881 130.197 93.2081 128.541 95.9475C126.251 99.7394 124.48 106.343 127.072 110.683C129.131 114.143 132.17 113.234 133.696 116.954C134.877 119.838 133.509 121.51 135.165 124.697C136.158 126.6 138.059 128.748 139.211 128.388C140.709 127.897 140.464 123.24 140.32 120.645C139.384 104.858 138.103 83.3174 135.899 83.4183C135.294 83.4472 135.439 85.0475 133.696 88.5799Z" fill="#AFA4FF"/>
<path d="M124.12 164.504C127.735 156.228 125.272 152.22 127.807 147.548C131.119 141.406 140.522 138.782 142.523 140.916C144.453 142.978 140.047 149.999 138.103 153.085C132.256 162.384 123.616 169.074 122.637 168.195C122.291 167.892 123.083 166.839 124.106 164.504H124.12Z" fill="#AFA4FF"/>
<path d="M121.787 66.0005C121.312 64.8327 121.931 63.4197 122.68 62.6556C123.501 61.8193 124.581 61.6607 126.194 61.4445C126.525 61.4012 126.856 61.358 127.188 61.4445C128.34 61.6896 128.815 63.0304 129.088 64.1695C129.304 65.0634 129.535 65.8996 129.088 66.6205C128.527 67.5144 127.303 67.6009 126.468 67.6586C125.805 67.7018 122.594 67.9325 121.802 66.0149L121.787 66.0005Z" fill="#AFA4FF"/>
<path d="M100.358 139.446C97.2331 137.831 88.4634 144.305 87.4698 152.35C87.3258 153.503 87.0522 157.065 90.0475 162.298C97.5067 175.361 114.888 180.609 116.544 178.144C118.099 175.837 104.131 169.363 101.481 154.08C100.07 145.963 102.777 140.7 100.344 139.446H100.358Z" fill="#4E44D8"/>
<path d="M147.838 136.13C153.31 134.875 162.267 143.685 162.555 152.35C163.001 165.686 142.74 174.856 132.372 177.783C124.035 180.133 114.142 180.695 113.321 178.259C112.27 175.159 127.563 172.016 137.168 157.511C144.555 146.366 142.74 137.297 147.838 136.13Z" fill="#4E44D8"/>
<path d="M102.16 106.039C103.701 104.813 105.458 103.213 107.215 101.166C109.187 98.8732 110.627 96.6529 111.664 94.793C111.952 95.8311 113.104 100.531 110.498 105.477C107.992 110.249 103.73 111.994 102.679 112.383C102.506 110.263 102.333 108.144 102.16 106.024V106.039Z" fill="#C7C5EF"/>
<path d="M68.738 89.6678C69.0561 89.1162 69.1186 88.556 68.8775 88.4166C68.6365 88.2773 68.1832 88.6115 67.8651 89.1632C67.5469 89.7149 67.4845 90.2751 67.7255 90.4144C67.9666 90.5538 68.4199 90.2195 68.738 89.6678Z" fill="#C8BDFF"/>
<path d="M73.7061 90.0726C73.9064 89.4679 73.8546 88.9067 73.5904 88.8189C73.3262 88.7312 72.9497 89.1502 72.7494 89.7548C72.5491 90.3595 72.6009 90.9207 72.8651 91.0085C73.1293 91.0962 73.5058 90.6772 73.7061 90.0726Z" fill="#C8BDFF"/>
</g>
<defs>
<linearGradient id="paint0_linear_1414_217632" x1="24.9185" y1="110.798" x2="15.623" y2="152.677" gradientUnits="userSpaceOnUse">
<stop stop-color="white"/>
<stop offset="0.01" stop-color="#FAF9FF"/>
<stop offset="0.08" stop-color="#E3DFFF"/>
<stop offset="0.16" stop-color="#CFC9FF"/>
<stop offset="0.26" stop-color="#C1B8FF"/>
<stop offset="0.38" stop-color="#B6ACFF"/>
<stop offset="0.54" stop-color="#B0A5FF"/>
<stop offset="1" stop-color="#AFA4FF"/>
</linearGradient>
<linearGradient id="paint1_linear_1414_217632" x1="173.454" y1="109.212" x2="164.158" y2="151.106" gradientUnits="userSpaceOnUse">
<stop stop-color="white"/>
<stop offset="0.01" stop-color="#FAF9FF"/>
<stop offset="0.08" stop-color="#E3DFFF"/>
<stop offset="0.16" stop-color="#CFC9FF"/>
<stop offset="0.26" stop-color="#C1B8FF"/>
<stop offset="0.38" stop-color="#B6ACFF"/>
<stop offset="0.54" stop-color="#B0A5FF"/>
<stop offset="1" stop-color="#AFA4FF"/>
</linearGradient>
<linearGradient id="paint2_linear_1414_217632" x1="32.4218" y1="125.851" x2="32.4218" y2="194.465" gradientUnits="userSpaceOnUse">
<stop stop-color="white"/>
<stop offset="0.03" stop-color="#FBFAFF"/>
<stop offset="0.32" stop-color="#DAD5FF"/>
<stop offset="0.58" stop-color="#C2BAFF"/>
<stop offset="0.82" stop-color="#B4A9FF"/>
<stop offset="1" stop-color="#AFA4FF"/>
</linearGradient>
<linearGradient id="paint3_linear_1414_217632" x1="198.254" y1="111.072" x2="198.254" y2="179.686" gradientUnits="userSpaceOnUse">
<stop stop-color="white"/>
<stop offset="0.03" stop-color="#FBFAFF"/>
<stop offset="0.32" stop-color="#DAD5FF"/>
<stop offset="0.58" stop-color="#C2BAFF"/>
<stop offset="0.82" stop-color="#B4A9FF"/>
<stop offset="1" stop-color="#AFA4FF"/>
</linearGradient>
<linearGradient id="paint4_linear_1414_217632" x1="86.824" y1="123.688" x2="86.824" y2="228.217" gradientUnits="userSpaceOnUse">
<stop stop-color="white"/>
<stop offset="0.03" stop-color="#FBFAFF"/>
<stop offset="0.32" stop-color="#DAD5FF"/>
<stop offset="0.58" stop-color="#C2BAFF"/>
<stop offset="0.82" stop-color="#B4A9FF"/>
<stop offset="1" stop-color="#AFA4FF"/>
</linearGradient>
<linearGradient id="paint5_linear_1414_217632" x1="163.549" y1="124.914" x2="163.549" y2="236.595" gradientUnits="userSpaceOnUse">
<stop stop-color="white"/>
<stop offset="0.03" stop-color="#FBFAFF"/>
<stop offset="0.32" stop-color="#DAD5FF"/>
<stop offset="0.58" stop-color="#C2BAFF"/>
<stop offset="0.82" stop-color="#B4A9FF"/>
<stop offset="1" stop-color="#AFA4FF"/>
</linearGradient>
<linearGradient id="paint6_linear_1414_217632" x1="5.11748" y1="114.649" x2="-7.09901" y2="155.762" gradientUnits="userSpaceOnUse">
<stop stop-color="white"/>
<stop offset="0.05" stop-color="#F8F8FF"/>
<stop offset="0.33" stop-color="#D8D3FF"/>
<stop offset="0.59" stop-color="#C1B9FF"/>
<stop offset="0.82" stop-color="#B3A9FF"/>
<stop offset="1" stop-color="#AFA4FF"/>
</linearGradient>
<linearGradient id="paint7_linear_1414_217632" x1="-6.26962" y1="105.582" x2="-13.9321" y2="131.369" gradientUnits="userSpaceOnUse">
<stop stop-color="white"/>
<stop offset="0.05" stop-color="#F8F8FF"/>
<stop offset="0.33" stop-color="#D8D3FF"/>
<stop offset="0.59" stop-color="#C1B9FF"/>
<stop offset="0.82" stop-color="#B3A9FF"/>
<stop offset="1" stop-color="#AFA4FF"/>
</linearGradient>
</defs>
</svg>
