<svg width="209" height="209" viewBox="0 0 209 209" fill="none" xmlns="http://www.w3.org/2000/svg">
<circle cx="104.5" cy="104.5" r="104.5" fill="#221D7E"/>
<mask id="mask0_1211_151235" style="mask-type:alpha" maskUnits="userSpaceOnUse" x="0" y="0" width="209" height="209">
<circle cx="104.5" cy="104.5" r="104.5" fill="#C4C4C4"/>
</mask>
<g mask="url(#mask0_1211_151235)">
<path d="M19.763 155.567C31.597 155.567 41.1903 145.962 41.1903 134.113C41.1903 122.264 31.597 112.659 19.763 112.659C7.92902 112.659 -1.66431 122.264 -1.66431 134.113C-1.66431 145.962 7.92902 155.567 19.763 155.567Z" fill="url(#paint0_linear_1211_151235)"/>
<path d="M168.3 153.98C180.134 153.98 189.727 144.375 189.727 132.526C189.727 120.677 180.134 111.072 168.3 111.072C156.466 111.072 146.872 120.677 146.872 132.526C146.872 144.375 156.466 153.98 168.3 153.98Z" fill="url(#paint1_linear_1211_151235)"/>
<path d="M32.4206 194.466C51.3406 194.466 66.6784 179.11 66.6784 160.166C66.6784 141.223 51.3406 125.866 32.4206 125.866C13.5006 125.866 -1.83716 141.223 -1.83716 160.166C-1.83716 179.11 13.5006 194.466 32.4206 194.466Z" fill="url(#paint2_linear_1211_151235)"/>
<path d="M198.252 179.688C217.172 179.688 232.509 164.331 232.509 145.388C232.509 126.445 217.172 111.088 198.252 111.088C179.332 111.088 163.994 126.445 163.994 145.388C163.994 164.331 179.332 179.688 198.252 179.688Z" fill="url(#paint3_linear_1211_151235)"/>
<path d="M86.8096 228.219C115.639 228.219 139.01 204.819 139.01 175.954C139.01 147.089 115.639 123.689 86.8096 123.689C57.9802 123.689 34.6094 147.089 34.6094 175.954C34.6094 204.819 57.9802 228.219 86.8096 228.219Z" fill="url(#paint4_linear_1211_151235)"/>
<path d="M163.548 236.595C194.349 236.595 219.319 211.594 219.319 180.754C219.319 149.915 194.349 124.914 163.548 124.914C132.746 124.914 107.776 149.915 107.776 180.754C107.776 211.594 132.746 236.595 163.548 236.595Z" fill="url(#paint5_linear_1211_151235)"/>
<path d="M-0.987492 156.662C10.8465 156.662 20.4398 147.057 20.4398 135.209C20.4398 123.36 10.8465 113.755 -0.987492 113.755C-12.8215 113.755 -22.4148 123.36 -22.4148 135.209C-22.4148 147.057 -12.8215 156.662 -0.987492 156.662Z" fill="url(#paint6_linear_1211_151235)"/>
<path d="M-10.0884 131.921C-2.66832 131.921 3.34685 125.899 3.34685 118.469C3.34685 111.04 -2.66832 105.018 -10.0884 105.018C-17.5085 105.018 -23.5237 111.04 -23.5237 118.469C-23.5237 125.899 -17.5085 131.921 -10.0884 131.921Z" fill="url(#paint7_linear_1211_151235)"/>
<g opacity="0.35">
<path opacity="0.35" d="M169.322 49.7979V71.5256" stroke="#E9E3FF" stroke-width="0.77" stroke-miterlimit="10"/>
<path opacity="0.35" d="M175.773 60.8994H162.871" stroke="#E9E3FF" stroke-width="0.77" stroke-miterlimit="10"/>
</g>
<g opacity="0.42">
<path opacity="0.42" d="M36.6396 56.7891V70.7888" stroke="#E9E3FF" stroke-width="0.5" stroke-miterlimit="10"/>
<path opacity="0.42" d="M40.7869 63.9404H32.478" stroke="#E9E3FF" stroke-width="0.5" stroke-miterlimit="10"/>
</g>
<path d="M180.496 81.978C182.628 81.978 182.642 78.6475 180.496 78.6475C178.351 78.6475 178.351 81.978 180.496 81.978Z" fill="#E9E3FF"/>
<path d="M164.671 85.7703C165.376 85.7703 165.391 84.6602 164.671 84.6602C163.951 84.6602 163.951 85.7703 164.671 85.7703Z" fill="#E9E3FF"/>
<path d="M18.5388 92.7193C21.39 92.7193 21.39 88.293 18.5388 88.293C15.6876 88.293 15.6876 92.7193 18.5388 92.7193Z" fill="#E9E3FF"/>
<path d="M33.9901 96.2799C35.4157 96.2799 35.4157 94.0596 33.9901 94.0596C32.5645 94.0596 32.5645 96.2799 33.9901 96.2799Z" fill="#E9E3FF"/>
<path d="M5.04601 102.912C6.47162 102.912 6.47162 100.691 5.04601 100.691C3.6204 100.691 3.6204 102.912 5.04601 102.912Z" fill="#E9E3FF"/>
<path d="M190.677 95.3569C192.809 95.3569 192.823 92.0264 190.677 92.0264C188.532 92.0264 188.532 95.3569 190.677 95.3569Z" fill="#E9E3FF"/>
<path d="M91.5185 146.44C84.7937 143.455 74.8288 151.918 68.6944 157.123C65.6128 159.747 58.9312 165.976 53.9775 176.285C50.2911 183.94 47.5119 189.722 48.8223 194.711C53.0415 210.714 99.1218 210.887 109.562 210.931C114.127 210.945 197.777 210.772 202.356 185.757C204.242 175.477 192.362 163.092 181.346 151.587C177.257 147.319 172.548 143.239 165.88 140.528C160.25 138.236 157.197 136.996 153.871 137.731C142.264 140.312 145.879 163.049 131.277 171.844C122.767 176.977 109.864 176.285 102.938 170.373C93.9809 162.732 98.8338 149.669 91.5329 146.425L91.5185 146.44Z" fill="#301FAD"/>
<path d="M102.246 105.926C100.058 108.377 96.0545 112.198 89.992 114.577C88.0912 115.326 73.0144 120.964 63.5103 112.313C59.0031 108.204 57.9087 102.898 57.6207 101.384C57.5055 100.779 55.9791 92.1568 61.1919 85.02C64.6191 80.3198 67.8159 80.5793 76.2112 72.7792C77.824 71.2798 79.3216 70.2849 80.6608 68.3097C83.6704 63.8978 83.5264 59.5292 83.8576 57.2656C85.1104 48.6725 97.7969 39.8056 109.807 39.2144C127.36 38.3494 140.205 55.3336 141.832 65.3829C142.207 67.6753 142.826 74.8698 142.019 83.434C141.847 85.2363 141.674 86.4329 141.587 87.1538C140.09 98.8035 142.696 111.65 144.41 123.227C146.455 137.011 147.492 143.903 146.8 147.175C143.632 162.415 128.296 177.785 116.431 174.814C107.128 172.479 102.952 159.632 102.261 157.311C100.158 150.319 101.426 145.503 102.261 135.756C102.866 128.735 103.298 118.556 102.261 105.926H102.246Z" fill="white"/>
<path d="M67.2688 79.7568C70.7536 79.7568 75.6929 80.2615 80.8769 82.7413C95.5793 89.7917 98.9922 106.387 99.4386 108.737C96.7458 111.303 89.8625 117.142 79.6961 118.065C75.7217 118.426 68.8096 119.06 63.0064 114.374C56.9008 109.458 56.152 102.004 56.008 100.619C55.4896 95.4435 57.0448 91.4786 57.7216 89.9359C60.5296 83.6352 65.584 80.6507 67.2688 79.7568Z" fill="#9F98F9"/>
<path d="M83.3106 73.9905C83.2386 73.803 83.1666 73.6156 83.0658 73.457C82.965 73.3128 82.8498 73.1542 82.7202 73.0245C82.5618 72.8659 82.389 72.7361 82.1874 72.6208C81.813 72.3901 81.309 72.4045 80.9346 72.6208C80.5602 72.837 80.3442 73.2552 80.3154 73.7021C80.2722 74.4518 80.2146 75.2304 80.373 75.9657C80.4018 76.1099 80.4737 76.2685 80.5458 76.3983C80.6466 76.5857 80.8482 76.802 81.0354 76.9029C81.453 77.1336 81.9714 77.148 82.389 76.9029C82.6626 76.7299 82.893 76.4848 83.0514 76.1964C83.1954 75.9369 83.325 75.6341 83.3682 75.3458C83.4402 74.8988 83.469 74.4518 83.2962 74.0193C83.253 73.8607 83.181 73.7165 83.0802 73.6012C82.9938 73.4714 82.8786 73.3561 82.7346 73.284C82.461 73.1254 82.0722 73.0677 81.7698 73.1542C81.4674 73.2407 81.1794 73.4426 81.021 73.731C80.8626 74.0193 80.7761 74.3798 80.8913 74.6969C80.9201 74.7979 80.949 74.8844 80.9634 74.9853L80.9202 74.6537C80.9202 74.769 80.9202 74.8844 80.9202 74.9997L80.9634 74.6681C80.949 74.8123 80.9058 74.9565 80.8482 75.0862L80.9778 74.7835C80.9346 74.8844 80.877 74.9853 80.805 75.0718L81.0066 74.8123C81.0066 74.8123 80.9346 74.8988 80.8913 74.9276L81.1506 74.7258C81.1506 74.7258 81.1218 74.7546 81.093 74.7546L81.3954 74.6249H81.3666L81.6978 74.5816C81.6978 74.5816 81.6978 74.5816 81.6834 74.5816L82.0146 74.6249L82.317 74.7402L82.5762 74.9276H82.5618L82.7634 75.1583C82.7634 75.1583 82.7346 75.1295 82.7346 75.1007L82.8642 75.4034C82.8354 75.3313 82.821 75.2448 82.8066 75.1727L82.8498 75.5043C82.7778 74.9132 82.821 74.2788 82.8498 73.6877L80.9778 74.769C80.9778 74.769 81.0786 74.8267 81.1218 74.87L80.8626 74.6681C80.949 74.7402 81.0354 74.8267 81.1074 74.9132L80.9058 74.6537C80.9634 74.7402 81.0066 74.8123 81.0498 74.9132L80.9202 74.6104V74.6393C80.9778 74.7979 81.0498 74.9421 81.1506 75.0574C81.237 75.1872 81.3522 75.3025 81.4962 75.3746C81.7698 75.5332 82.1586 75.5909 82.461 75.5043C82.7634 75.4178 83.0514 75.216 83.2098 74.9276C83.3682 74.6393 83.4546 74.2644 83.3394 73.9616L83.3106 73.9905Z" fill="#301FAD"/>
<path d="M98.9922 74.7402C98.9202 74.5528 98.8482 74.3654 98.733 74.2068C98.6322 74.0482 98.517 73.904 98.3874 73.7742C98.229 73.6156 98.0418 73.4715 97.8546 73.3561C97.4802 73.1254 96.9762 73.1399 96.6018 73.3561C96.2274 73.5724 96.0114 73.9905 95.9826 74.4375C95.9394 75.1872 95.8818 75.9802 96.0402 76.7299C96.069 76.8885 96.141 77.0327 96.213 77.1624C96.3138 77.3499 96.5154 77.5661 96.7026 77.6671C97.1202 77.8978 97.6386 77.9122 98.0562 77.6671C98.3298 77.4941 98.5602 77.249 98.7186 76.9606C98.8626 76.7011 98.9922 76.3983 99.0354 76.0955C99.1074 75.6486 99.1362 75.1872 98.9634 74.7547C98.9202 74.5961 98.8482 74.4519 98.7474 74.3365C98.661 74.2068 98.5458 74.0914 98.4018 74.0193C98.1282 73.8608 97.7394 73.8031 97.437 73.8896C97.1346 73.9761 96.8466 74.1779 96.6882 74.4663C96.5298 74.7547 96.4434 75.1151 96.5586 75.4323C96.5874 75.5332 96.6162 75.6197 96.6306 75.7207L96.5874 75.389C96.5874 75.5044 96.5874 75.6197 96.5874 75.7495L96.6306 75.4179C96.6162 75.5621 96.573 75.7062 96.5154 75.8504L96.645 75.5476C96.6018 75.6486 96.5442 75.7495 96.4722 75.8504L96.6738 75.5909C96.6738 75.5909 96.6018 75.6774 96.5586 75.7062L96.8178 75.5044C96.8178 75.5044 96.789 75.5332 96.7602 75.5332L97.0626 75.4035H97.0338L97.365 75.3602C97.365 75.3602 97.365 75.3602 97.3506 75.3602L97.6818 75.4035L97.9842 75.5188L98.2434 75.7062H98.229L98.4306 75.9369C98.4306 75.9369 98.4018 75.8937 98.4018 75.8793L98.5314 76.182C98.5026 76.1099 98.4882 76.0234 98.4738 75.9513L98.517 76.283C98.4306 75.6774 98.4882 75.043 98.517 74.4375L96.645 75.5188C96.645 75.5188 96.7458 75.5765 96.789 75.6197L96.5298 75.4179C96.6162 75.49 96.7026 75.5765 96.7746 75.663L96.573 75.4035C96.6306 75.49 96.6882 75.5765 96.717 75.663L96.5874 75.3602V75.389C96.645 75.5476 96.717 75.6918 96.8178 75.8072C96.9042 75.9369 97.0194 76.0523 97.1634 76.1244C97.437 76.283 97.8258 76.3406 98.1282 76.2541C98.4306 76.1676 98.7186 75.9658 98.877 75.6774C99.0354 75.389 99.1218 75.0142 99.0066 74.7114L98.9922 74.7402Z" fill="#301FAD"/>
<path d="M60.5584 100.793C65.5408 105.19 72.8992 105.998 78.4577 102.162C79.1921 101.658 79.5233 100.706 79.0481 99.8845C78.6161 99.1492 77.5217 98.7743 76.7729 99.2933C74.3104 100.995 71.2864 101.788 68.32 101.153C66.9808 100.865 65.8432 100.404 64.6768 99.7115C64.2304 99.4519 63.8128 99.1492 63.3952 98.8608C63.064 98.6157 63.6544 99.0771 63.3808 98.8464C63.3376 98.8031 63.28 98.7599 63.2368 98.731C63.1216 98.6445 63.0208 98.5436 62.92 98.4571C62.2432 97.866 61.2352 97.7939 60.5728 98.4571C59.968 99.0627 59.896 100.216 60.5728 100.807L60.5584 100.793Z" fill="#C8BDFF"/>
<path d="M77.7089 56.9765C75.1024 49.7532 89.3729 32.7401 107.416 30.1016C108.799 29.8998 125.949 27.665 137.354 39.9346C138.88 41.5782 146.023 49.2486 145.648 60.5666C145.476 65.9733 143.661 70.1545 142.38 72.5478C132.904 68.0639 125.315 66.7807 120.074 66.4635C116.632 66.2616 114.544 66.4779 109.216 65.9156C101.498 65.0938 100.936 64.0845 94.4993 63.7097C89.2433 63.4069 87.8321 63.9692 84.8513 62.7869C84.2897 62.5707 78.9473 60.3936 77.7233 56.9765H77.7089Z" fill="#7F7FF4"/>
<path d="M79.4224 69.8232C76.672 69.9097 70.2496 69.7079 64.4752 65.3537C62.8624 64.1426 58.0239 60.4948 58.7727 57.4238C59.7951 53.185 70.9984 52.2911 76.8016 52.4497C82.7056 52.6083 94.9889 54.151 109.187 65.9015C104.291 64.9788 100.13 64.6904 97.0337 64.6183C84.9377 64.33 81.6688 67.228 80.632 68.2949C80.056 68.886 79.6528 69.4339 79.3936 69.8232H79.4224Z" fill="#4E44D8"/>
<path d="M114.587 67.0397C113.32 61.5753 125.891 50.9493 131.867 54.0492C136.907 56.6588 137.815 69.2745 132.472 72.8068C128.642 75.3444 122.565 72.5906 120.535 71.6822C117.799 70.4423 115.106 69.2312 114.587 67.0397Z" fill="white"/>
<path d="M62.0704 26.8004C62.9201 24.2773 65.8145 22.8067 68.3489 23.0229C71.5169 23.2969 74.2673 26.1948 74.4977 29.9867C77.2049 31.7601 82.0577 34.9753 85.5426 37.6715C85.6578 37.758 86.3778 38.2338 87.1698 39.0844C90.4386 42.5735 91.5474 43.8423 91.2162 45.1543C90.7842 46.9133 88.0482 47.6775 86.6658 47.9803C82.6625 43.7702 85.197 47.1873 83.3249 44.2893C83.3249 44.2893 76.1969 33.3317 72.2225 32.7694H72.1937C71.9777 33.1154 70.9409 34.687 69.0689 34.9753C67.9025 35.1628 66.9665 34.7446 66.4625 34.4995C64.1873 33.447 60.9184 30.2174 62.056 26.8004H62.0704Z" fill="#AFA4FF"/>
<path d="M94.3697 20.2689C95.9393 18.1206 99.1505 17.5871 101.498 18.5676C104.435 19.7787 106.178 23.3831 105.256 27.0741C107.301 29.5828 110.959 34.1244 113.464 37.7577C113.551 37.8731 114.098 38.5507 114.587 39.6032C116.647 43.9286 117.323 45.4569 116.603 46.6103C115.653 48.153 112.816 48.0521 111.419 47.9223C108.871 42.6887 110.267 46.7257 109.346 43.3951C109.346 43.3951 105.875 30.7795 102.247 29.0494H102.218C101.901 29.3089 100.432 30.4911 98.5745 30.1884C97.4081 30.0009 96.6449 29.3233 96.2273 28.9484C94.3841 27.2471 92.2385 23.1813 94.3553 20.2833L94.3697 20.2689Z" fill="#AFA4FF"/>
<path d="M109.029 120.645C111.002 120.487 112.816 125.547 113.45 127.277C116.517 135.813 112.067 143.152 111.607 143.858C110.944 144.925 107.431 150.476 105.343 149.755C101.051 148.284 104.522 120.991 109.029 120.645Z" fill="#AFA4FF"/>
<path d="M133.696 88.5809C131.709 92.5891 130.197 93.209 128.541 95.9484C126.252 99.7403 124.48 106.344 127.072 110.683C129.132 114.144 132.17 113.235 133.696 116.955C134.877 119.839 133.509 121.511 135.165 124.698C136.159 126.601 138.06 128.749 139.212 128.389C140.709 127.898 140.464 123.241 140.32 120.646C139.384 104.859 138.103 83.3184 135.9 83.4193C135.295 83.4481 135.439 85.0485 133.696 88.5809Z" fill="#AFA4FF"/>
<path d="M124.12 164.506C127.735 156.23 125.272 152.222 127.807 147.55C131.119 141.408 140.522 138.784 142.524 140.918C144.453 142.98 140.047 150.001 138.103 153.087C132.256 162.386 123.616 169.076 122.637 168.197C122.292 167.894 123.084 166.841 124.106 164.506H124.12Z" fill="#AFA4FF"/>
<path d="M121.787 66.0025C121.312 64.8346 121.931 63.4217 122.68 62.6575C123.501 61.8213 124.581 61.6627 126.194 61.4464C126.525 61.4032 126.856 61.3599 127.188 61.4464C128.34 61.6915 128.815 63.0324 129.088 64.1714C129.304 65.0653 129.535 65.9016 129.088 66.6224C128.527 67.5164 127.303 67.6029 126.468 67.6605C125.805 67.7038 122.594 67.9345 121.802 66.0169L121.787 66.0025Z" fill="#AFA4FF"/>
<path d="M100.36 139.447C97.2353 137.832 88.4656 144.306 87.472 152.351C87.328 153.504 87.0544 157.066 90.0496 162.299C97.5089 175.362 114.89 180.61 116.546 178.145C118.101 175.838 104.133 169.364 101.483 154.081C100.072 145.964 102.779 140.701 100.346 139.447H100.36Z" fill="#4E44D8"/>
<path d="M147.837 136.131C153.309 134.876 162.266 143.686 162.554 152.351C163.001 165.687 142.74 174.857 132.372 177.784C124.034 180.134 114.141 180.696 113.32 178.26C112.269 175.16 127.562 172.017 137.167 157.512C144.554 146.367 142.74 137.298 147.837 136.131Z" fill="#4E44D8"/>
<path d="M102.16 106.041C103.701 104.815 105.458 103.215 107.215 101.168C109.187 98.8752 110.627 96.6548 111.664 94.7949C111.952 95.833 113.104 100.533 110.498 105.479C107.992 110.251 103.73 111.995 102.679 112.385C102.506 110.265 102.333 108.146 102.16 106.026V106.041Z" fill="#C7C5EF"/>
<path d="M68.7402 89.6698C69.0583 89.1181 69.1208 88.5579 68.8797 88.4186C68.6387 88.2792 68.1854 88.6135 67.8673 89.1652C67.5491 89.7168 67.4867 90.277 67.7277 90.4164C67.9688 90.5557 68.4221 90.2215 68.7402 89.6698Z" fill="#C8BDFF"/>
<path d="M73.7081 90.0745C73.9084 89.4699 73.8566 88.9086 73.5924 88.8209C73.3282 88.7331 72.9516 89.1522 72.7513 89.7568C72.551 90.3614 72.6028 90.9227 72.867 91.0104C73.1312 91.0982 73.5078 90.6792 73.7081 90.0745Z" fill="#C8BDFF"/>
</g>
<defs>
<linearGradient id="paint0_linear_1211_151235" x1="24.9182" y1="110.799" x2="15.6227" y2="152.678" gradientUnits="userSpaceOnUse">
<stop stop-color="white"/>
<stop offset="0.01" stop-color="#FAF9FF"/>
<stop offset="0.08" stop-color="#E3DFFF"/>
<stop offset="0.16" stop-color="#CFC9FF"/>
<stop offset="0.26" stop-color="#C1B8FF"/>
<stop offset="0.38" stop-color="#B6ACFF"/>
<stop offset="0.54" stop-color="#B0A5FF"/>
<stop offset="1" stop-color="#AFA4FF"/>
</linearGradient>
<linearGradient id="paint1_linear_1211_151235" x1="173.455" y1="109.212" x2="164.159" y2="151.106" gradientUnits="userSpaceOnUse">
<stop stop-color="white"/>
<stop offset="0.01" stop-color="#FAF9FF"/>
<stop offset="0.08" stop-color="#E3DFFF"/>
<stop offset="0.16" stop-color="#CFC9FF"/>
<stop offset="0.26" stop-color="#C1B8FF"/>
<stop offset="0.38" stop-color="#B6ACFF"/>
<stop offset="0.54" stop-color="#B0A5FF"/>
<stop offset="1" stop-color="#AFA4FF"/>
</linearGradient>
<linearGradient id="paint2_linear_1211_151235" x1="32.4206" y1="125.852" x2="32.4206" y2="194.466" gradientUnits="userSpaceOnUse">
<stop stop-color="white"/>
<stop offset="0.03" stop-color="#FBFAFF"/>
<stop offset="0.32" stop-color="#DAD5FF"/>
<stop offset="0.58" stop-color="#C2BAFF"/>
<stop offset="0.82" stop-color="#B4A9FF"/>
<stop offset="1" stop-color="#AFA4FF"/>
</linearGradient>
<linearGradient id="paint3_linear_1211_151235" x1="198.252" y1="111.073" x2="198.252" y2="179.688" gradientUnits="userSpaceOnUse">
<stop stop-color="white"/>
<stop offset="0.03" stop-color="#FBFAFF"/>
<stop offset="0.32" stop-color="#DAD5FF"/>
<stop offset="0.58" stop-color="#C2BAFF"/>
<stop offset="0.82" stop-color="#B4A9FF"/>
<stop offset="1" stop-color="#AFA4FF"/>
</linearGradient>
<linearGradient id="paint4_linear_1211_151235" x1="86.824" y1="123.689" x2="86.824" y2="228.219" gradientUnits="userSpaceOnUse">
<stop stop-color="white"/>
<stop offset="0.03" stop-color="#FBFAFF"/>
<stop offset="0.32" stop-color="#DAD5FF"/>
<stop offset="0.58" stop-color="#C2BAFF"/>
<stop offset="0.82" stop-color="#B4A9FF"/>
<stop offset="1" stop-color="#AFA4FF"/>
</linearGradient>
<linearGradient id="paint5_linear_1211_151235" x1="163.548" y1="124.914" x2="163.548" y2="236.595" gradientUnits="userSpaceOnUse">
<stop stop-color="white"/>
<stop offset="0.03" stop-color="#FBFAFF"/>
<stop offset="0.32" stop-color="#DAD5FF"/>
<stop offset="0.58" stop-color="#C2BAFF"/>
<stop offset="0.82" stop-color="#B4A9FF"/>
<stop offset="1" stop-color="#AFA4FF"/>
</linearGradient>
<linearGradient id="paint6_linear_1211_151235" x1="5.11674" y1="114.65" x2="-7.09974" y2="155.763" gradientUnits="userSpaceOnUse">
<stop stop-color="white"/>
<stop offset="0.05" stop-color="#F8F8FF"/>
<stop offset="0.33" stop-color="#D8D3FF"/>
<stop offset="0.59" stop-color="#C1B9FF"/>
<stop offset="0.82" stop-color="#B3A9FF"/>
<stop offset="1" stop-color="#AFA4FF"/>
</linearGradient>
<linearGradient id="paint7_linear_1211_151235" x1="-6.26986" y1="105.582" x2="-13.9324" y2="131.369" gradientUnits="userSpaceOnUse">
<stop stop-color="white"/>
<stop offset="0.05" stop-color="#F8F8FF"/>
<stop offset="0.33" stop-color="#D8D3FF"/>
<stop offset="0.59" stop-color="#C1B9FF"/>
<stop offset="0.82" stop-color="#B3A9FF"/>
<stop offset="1" stop-color="#AFA4FF"/>
</linearGradient>
</defs>
</svg>
