<svg width="122" height="122" viewBox="0 0 122 122" fill="none" xmlns="http://www.w3.org/2000/svg">
<g filter="url(#filter0_d_1196_228242)">
<path d="M55.2383 14.9008C56.5309 17.9447 55.1056 21.4545 52.0583 22.7456C49.0109 24.0367 45.497 22.6131 44.2045 19.5692C42.9119 16.5254 44.3372 13.0155 47.3845 11.7245C50.4319 10.4334 53.9457 11.857 55.2383 14.9008V14.9008Z" fill="white"/>
<path d="M52.7842 17.5199L47.791 19.6328L57.4545 42.4167L62.4477 40.3038L52.7842 17.5199Z" fill="white"/>
<path d="M81.7777 14.9008C80.4852 17.9447 81.9104 21.4545 84.9578 22.7456C88.0051 24.0367 91.519 22.6131 92.8115 19.5692C94.1041 16.5254 92.6789 13.0155 89.6315 11.7245C86.5842 10.4334 83.0703 11.857 81.7777 14.9008Z" fill="white"/>
<path d="M74.5655 40.307L79.5586 42.4199L89.2221 19.636L84.2289 17.5231L74.5655 40.307Z" fill="white"/>
<path d="M57.1774 69.486C56.3513 70.029 46.4432 76.3048 35.1055 71.6449C23.3398 66.8098 20.9473 54.6771 20.8018 53.8691C20.8103 57.4559 21.1741 78.1687 36.6334 91.383C46.8926 100.151 59.9251 102.302 63.7643 102.934C68.6435 103.738 67.6936 103.815 70.6254 103.725C69.029 103.281 63.546 100.151 58.4015 89.2711C54.0273 80.0198 56.5482 71.4355 57.1774 69.486Z" fill="#221D7E"/>
<path d="M95.4996 52.7188C95.4996 39.6905 84.9259 29.1289 71.8826 29.1289C58.8393 29.1289 48.2656 39.6905 48.2656 52.7188V80.1307C48.2656 93.159 58.8393 103.721 71.8826 103.721C84.9259 103.721 95.4996 93.159 95.4996 80.1307V52.7188Z" fill="white"/>
<path d="M95.4355 51.8766V51.8724C95.4355 39.3115 85.2413 29.1289 72.666 29.1289L43.5278 29.1289C30.9526 29.1289 20.7583 39.3115 20.7583 51.8724V51.8766C20.7583 64.4375 30.9526 74.6201 43.5278 74.6201H72.666C85.2413 74.6201 95.4355 64.4375 95.4355 51.8766Z" fill="white"/>
<path d="M53.3938 45.7835C54.3464 45.7835 55.1186 44.526 55.1186 42.9747C55.1186 41.4235 54.3464 40.166 53.3938 40.166C52.4412 40.166 51.6689 41.4235 51.6689 42.9747C51.6689 44.526 52.4412 45.7835 53.3938 45.7835Z" fill="#5432D3"/>
<path d="M64.175 45.7835C65.1276 45.7835 65.8999 44.526 65.8999 42.9747C65.8999 41.4235 65.1276 40.166 64.175 40.166C63.2224 40.166 62.4502 41.4235 62.4502 42.9747C62.4502 44.526 63.2224 45.7835 64.175 45.7835Z" fill="#5432D3"/>
<path d="M43.5756 74.6202C42.0605 74.6202 33.9927 74.4705 27.4743 67.9596C20.9558 61.4444 20.8018 53.3901 20.8018 51.8724C20.8018 50.342 20.9344 42.3518 27.363 35.858C33.9028 29.253 42.0819 29.1247 43.5713 29.129C45.6171 33.1219 49.2038 41.4498 49.0625 52.518C48.9298 62.868 45.5957 70.6657 43.5713 74.6202H43.5756Z" fill="#E3E0FF"/>
</g>
<defs>
<filter id="filter0_d_1196_228242" x="-8" y="-8" width="142" height="142" filterUnits="userSpaceOnUse" color-interpolation-filters="sRGB">
<feFlood flood-opacity="0" result="BackgroundImageFix"/>
<feColorMatrix in="SourceAlpha" type="matrix" values="0 0 0 0 0 0 0 0 0 0 0 0 0 0 0 0 0 0 127 0" result="hardAlpha"/>
<feOffset dx="2" dy="2"/>
<feGaussianBlur stdDeviation="5"/>
<feComposite in2="hardAlpha" operator="out"/>
<feColorMatrix type="matrix" values="0 0 0 0 0 0 0 0 0 0 0 0 0 0 0 0 0 0 0.25 0"/>
<feBlend mode="normal" in2="BackgroundImageFix" result="effect1_dropShadow_1196_228242"/>
<feBlend mode="normal" in="SourceGraphic" in2="effect1_dropShadow_1196_228242" result="shape"/>
</filter>
</defs>
</svg>
