<svg width="27" height="27" fill="none" xmlns="http://www.w3.org/2000/svg"><path d="M23.625 3.375v-.5h.5v.5h-.5ZM12.729 14.979a.5.5 0 0 1-.708-.708l.708.708Zm10.396-2.604v-9h1v9h-1Zm.5-8.5h-9v-1h9v1Zm.354-.146-11.25 11.25-.708-.708 11.25-11.25.708.708Z" fill="#fff"/><path d="M22.5 16.875v0c0 2.466 0 3.698-.681 4.528a2.993 2.993 0 0 1-.416.416c-.83.681-2.062.681-4.528.681H10.5c-2.828 0-4.243 0-5.121-.879C4.5 20.743 4.5 19.328 4.5 16.5v-6.375c0-2.466 0-3.698.681-4.528a3 3 0 0 1 .416-.416c.83-.681 2.062-.681 4.528-.681v0" stroke="#fff" stroke-linecap="round"/></svg>