<svg width="27" height="21" viewBox="0 0 27 21" fill="none" xmlns="http://www.w3.org/2000/svg">
<path d="M23.9258 0.353516L26.0176 2.19922C24.6777 3.375 23.584 4.50977 22.7363 5.60352C21.916 6.66992 21.3965 7.47656 21.1777 8.02344C20.959 8.57031 20.7539 9.22656 20.5625 9.99219L20.7266 10.2383C22.5586 10.2383 23.8984 10.6348 24.7461 11.4277C25.5938 12.2207 26.0176 13.4512 26.0176 15.1191C26.0176 16.4043 25.5527 17.5664 24.623 18.6055C23.7207 19.6445 22.5859 20.1641 21.2188 20.1641C19.6602 20.1641 18.3613 19.7266 17.3223 18.8516C16.2832 17.9766 15.7637 16.5684 15.7637 14.627C15.7637 12.0566 16.5566 9.4043 18.1426 6.66992C19.7559 3.9082 21.6836 1.80273 23.9258 0.353516ZM8.70898 0.353516L10.8008 2.19922C9.46094 3.375 8.38086 4.49609 7.56055 5.5625C6.74023 6.62891 6.20703 7.44922 5.96094 8.02344C5.74219 8.59766 5.53711 9.25391 5.3457 9.99219L5.50977 10.2383C7.3418 10.2383 8.68164 10.6348 9.5293 11.4277C10.377 12.2207 10.8008 13.4512 10.8008 15.1191C10.8008 16.4043 10.3359 17.5664 9.40625 18.6055C8.50391 19.6445 7.36914 20.1641 6.00195 20.1641C4.44336 20.1641 3.14453 19.7266 2.10547 18.8516C1.06641 17.9766 0.546875 16.5684 0.546875 14.627C0.546875 12.0566 1.33984 9.4043 2.92578 6.66992C4.53906 3.9082 6.4668 1.80273 8.70898 0.353516Z" fill="white"/>
</svg>
