<svg width="24" height="24" viewBox="0 0 24 24" fill="none" xmlns="http://www.w3.org/2000/svg">
<circle cx="12" cy="12" r="12" fill="#5432D3"/>
<mask id="mask0_1285_70446" style="mask-type:alpha" maskUnits="userSpaceOnUse" x="2" y="0" width="20" height="22">
<ellipse cx="11.9999" cy="11.4995" rx="10" ry="10.5" fill="#8B5726"/>
</mask>
<g mask="url(#mask0_1285_70446)">
<path d="M19.8937 18.9858C19.9595 18.9164 19.9844 18.8174 19.9568 18.7258C19.4665 17.1014 18.4457 15.6682 17.0418 14.6373C15.5953 13.5752 13.8231 12.9995 11.9999 12.9995C10.1767 12.9995 8.40443 13.5752 6.95799 14.6373C5.55742 15.6658 4.53812 17.0946 4.04648 18.7141C4.01667 18.8123 4.04541 18.9185 4.11869 18.9904L4.39621 19.2626C8.73255 23.5151 15.7119 23.3905 19.8937 18.9858Z" fill="white"/>
</g>
<circle cx="11.9999" cy="8.49951" r="3.5" fill="white"/>
</svg>
