<svg width="24" height="24" fill="none" xmlns="http://www.w3.org/2000/svg">
<path d="m11.566 21.348-.071-.495.07.495Zm-3.876-.143.327-.378-.327.378Zm12.576-1.841.378.327-.378-.327Zm0-14.728-.377.328.377-.328Zm-8.771-1.489 4.283.612.141-.99-4.283-.612-.141.99ZM20.5 9.204v5.592h1V9.204h-1ZM15.778 20.24l-4.283.612.141.99 4.283-.612-.141-.99ZM7.5 7.13v-.519h-1v.52h1Zm0 10.257v-.322h-1v.322h1Zm3.995 3.465c-1.077.154-1.833.26-2.406.261-.56.001-.857-.1-1.072-.287l-.655.756c.474.411 1.054.533 1.729.531.66 0 1.498-.122 2.545-.271l-.141-.99ZM6.5 17.388c0 1.058-.001 1.904.091 2.559.094.668.297 1.224.771 1.636l.655-.756c-.215-.187-.358-.466-.436-1.02-.08-.568-.081-1.331-.081-2.419h-1Zm14-2.592c0 1.254 0 2.147-.088 2.835-.085.673-.246 1.085-.523 1.405l.755.655c.456-.526.662-1.157.76-1.935.097-.765.096-1.732.096-2.96h-1Zm-4.58 6.435c1.214-.174 2.172-.31 2.916-.513.756-.208 1.352-.5 1.808-1.027l-.755-.655c-.278.32-.663.538-1.318.717-.668.183-1.552.31-2.793.488l.141.99Zm-.142-17.472c1.24.177 2.125.305 2.793.488.655.18 1.04.397 1.318.717l.755-.655c-.456-.526-1.052-.82-1.808-1.027-.744-.203-1.702-.34-2.917-.513l-.141.99ZM21.5 9.204c0-1.228 0-2.195-.096-2.96-.098-.778-.304-1.41-.76-1.935l-.755.655c.277.32.438.732.523 1.405.087.688.088 1.581.088 2.835h1Zm-9.864-7.047c-1.047-.15-1.885-.27-2.545-.271-.675-.002-1.255.12-1.729.531l.655.756c.215-.187.512-.288 1.072-.287.573 0 1.329.107 2.406.261l.141-.99ZM7.5 6.612c0-1.088.001-1.85.081-2.419.078-.554.221-.833.436-1.02l-.655-.756c-.474.412-.677.968-.77 1.636-.093.655-.092 1.501-.092 2.559h1ZM16 12l.39-.312.25.312-.25.312L16 12Zm-12 .5a.5.5 0 0 1 0-1v1Zm8.39-5.812 4 5-.78.624-4-5 .78-.624Zm4 5.624-4 5-.78-.624 4-5 .78.624ZM16 12.5H4v-1h12v1Z" fill="#fff"/>
</svg>