<svg width="23" height="22" viewBox="0 0 23 22" fill="none" xmlns="http://www.w3.org/2000/svg">
<path d="M2.16016 0.902344C3.15365 0.938802 4.39323 0.966146 5.87891 0.984375C7.36458 1.0026 9.11003 1.01172 11.1152 1.01172C13.1204 1.01172 14.8659 1.0026 16.3516 0.984375C17.8464 0.966146 19.0951 0.938802 20.0977 0.902344C20.1523 1.29427 20.2207 1.67253 20.3027 2.03711C20.3848 2.39258 20.5215 2.78906 20.7129 3.22656L21.123 4.15625L22.1211 6.09766C22.0573 6.24349 21.8978 6.36654 21.6426 6.4668C21.3327 5.89258 20.9544 5.3457 20.5078 4.82617C20.0612 4.30664 19.4915 3.83724 18.7988 3.41797C18.1152 2.9987 17.2767 2.64779 16.2832 2.36523C15.2988 2.08268 14.1094 1.89128 12.7148 1.79102C12.6693 2.93034 12.6328 4.22005 12.6055 5.66016C12.5872 7.09115 12.5781 8.6862 12.5781 10.4453C12.5781 12.2135 12.5872 13.8177 12.6055 15.2578C12.6328 16.6979 12.6693 17.9876 12.7148 19.127C12.724 19.3457 12.8105 19.5326 12.9746 19.6875C13.1387 19.8333 13.362 19.9564 13.6445 20.0566C13.9362 20.1569 14.2689 20.2389 14.6426 20.3027C15.0254 20.3574 15.4355 20.403 15.873 20.4395C15.9095 20.5944 15.9277 20.7174 15.9277 20.8086C15.9277 20.8906 15.9095 20.9818 15.873 21.082C14.3418 21.0273 12.7559 21 11.1152 21C9.48372 21 7.89779 21.0273 6.35742 21.082C6.32096 20.9818 6.30273 20.8906 6.30273 20.8086C6.30273 20.7174 6.32096 20.5944 6.35742 20.4395L7.01367 20.3711C7.25065 20.3438 7.51497 20.3073 7.80664 20.2617C8.09831 20.207 8.36719 20.1341 8.61328 20.043C8.86849 19.9518 9.08268 19.8379 9.25586 19.7012C9.42904 19.5645 9.51562 19.3958 9.51562 19.1953V19.127C9.5612 17.459 9.59766 15.9049 9.625 14.4648C9.65234 13.0247 9.66602 11.6849 9.66602 10.4453C9.66602 9.21484 9.65234 7.88411 9.625 6.45312C9.59766 5.01302 9.5612 3.45898 9.51562 1.79102C8.20312 1.86393 7.05924 2.04167 6.08398 2.32422C5.11784 2.59766 4.2793 2.94401 3.56836 3.36328C2.85742 3.77344 2.26497 4.2474 1.79102 4.78516C1.31706 5.3138 0.92513 5.87435 0.615234 6.4668C0.360026 6.36654 0.200521 6.24349 0.136719 6.09766L0.751953 4.93555L1.03906 4.34766C1.15755 4.10156 1.27604 3.85091 1.39453 3.5957C1.51302 3.34049 1.6224 3.07617 1.72266 2.80273C1.83203 2.52018 1.92318 2.22396 1.99609 1.91406C2.06901 1.59505 2.1237 1.25781 2.16016 0.902344Z" fill="white"/>
</svg>
