<svg width="38" height="36" viewBox="0 0 38 36" fill="none" xmlns="http://www.w3.org/2000/svg">
<path d="M3.70312 0.546875C5.40625 0.609375 7.53125 0.65625 10.0781 0.6875C12.625 0.71875 15.6172 0.734375 19.0547 0.734375C22.4922 0.734375 25.4844 0.71875 28.0312 0.6875C30.5938 0.65625 32.7344 0.609375 34.4531 0.546875C34.5469 1.21875 34.6641 1.86719 34.8047 2.49219C34.9453 3.10156 35.1797 3.78125 35.5078 4.53125L36.2109 6.125L37.9219 9.45312C37.8125 9.70312 37.5391 9.91406 37.1016 10.0859C36.5703 9.10156 35.9219 8.16406 35.1562 7.27344C34.3906 6.38281 33.4141 5.57812 32.2266 4.85938C31.0547 4.14062 29.6172 3.53906 27.9141 3.05469C26.2266 2.57031 24.1875 2.24219 21.7969 2.07031C21.7188 4.02344 21.6562 6.23438 21.6094 8.70312C21.5781 11.1562 21.5625 13.8906 21.5625 16.9062C21.5625 19.9375 21.5781 22.6875 21.6094 25.1562C21.6562 27.625 21.7188 29.8359 21.7969 31.7891C21.8125 32.1641 21.9609 32.4844 22.2422 32.75C22.5234 33 22.9062 33.2109 23.3906 33.3828C23.8906 33.5547 24.4609 33.6953 25.1016 33.8047C25.7578 33.8984 26.4609 33.9766 27.2109 34.0391C27.2734 34.3047 27.3047 34.5156 27.3047 34.6719C27.3047 34.8125 27.2734 34.9688 27.2109 35.1406C24.5859 35.0469 21.8672 35 19.0547 35C16.2578 35 13.5391 35.0469 10.8984 35.1406C10.8359 34.9688 10.8047 34.8125 10.8047 34.6719C10.8047 34.5156 10.8359 34.3047 10.8984 34.0391L12.0234 33.9219C12.4297 33.875 12.8828 33.8125 13.3828 33.7344C13.8828 33.6406 14.3438 33.5156 14.7656 33.3594C15.2031 33.2031 15.5703 33.0078 15.8672 32.7734C16.1641 32.5391 16.3125 32.25 16.3125 31.9062V31.7891C16.3906 28.9297 16.4531 26.2656 16.5 23.7969C16.5469 21.3281 16.5703 19.0312 16.5703 16.9062C16.5703 14.7969 16.5469 12.5156 16.5 10.0625C16.4531 7.59375 16.3906 4.92969 16.3125 2.07031C14.0625 2.19531 12.1016 2.5 10.4297 2.98438C8.77344 3.45312 7.33594 4.04688 6.11719 4.76562C4.89844 5.46875 3.88281 6.28125 3.07031 7.20312C2.25781 8.10938 1.58594 9.07031 1.05469 10.0859C0.617188 9.91406 0.34375 9.70312 0.234375 9.45312L1.28906 7.46094L1.78125 6.45312C1.98438 6.03125 2.1875 5.60156 2.39062 5.16406C2.59375 4.72656 2.78125 4.27344 2.95312 3.80469C3.14062 3.32031 3.29688 2.8125 3.42188 2.28125C3.54688 1.73438 3.64062 1.15625 3.70312 0.546875Z" fill="white"/>
</svg>
