<svg width="24" height="24" fill="none" xmlns="http://www.w3.org/2000/svg"><path d="M9 7h4M9 15h3M9 11h6M19 11V9c0-2.828 0-4.243-.879-5.121C17.243 3 15.828 3 13 3h-2c-2.828 0-4.243 0-5.121.879C5 4.757 5 6.172 5 9v6c0 2.828 0 4.243.879 5.121C6.757 21 8.172 21 11 21h1" stroke="#fff" stroke-width="1.2" stroke-linecap="round"/><circle cx="17.5" cy="17.5" r="2.5" stroke="#fff" stroke-width="1.2" stroke-linecap="round"/><path d="m21 21-1.5-1.5" stroke="#fff" stroke-width="1.2" stroke-linecap="round"/></svg>