<svg width="26" height="26" fill="none" xmlns="http://www.w3.org/2000/svg"><path d="M10.292 15.708v-3.25M15.708 15.708v-3.25M3.25 7.042h19.5v0c-1.684 0-2.526 0-3.086.475-.083.07-.16.148-.23.23-.476.56-.476 1.402-.476 3.086v6.292c0 1.886 0 2.828-.585 3.414-.586.586-1.529.586-3.415.586h-3.916c-1.886 0-2.829 0-3.415-.586-.585-.586-.585-1.528-.585-3.414v-6.292c0-1.684 0-2.525-.475-3.085a2 2 0 0 0-.231-.231c-.56-.475-1.402-.475-3.086-.475v0ZM10.292 3.792S10.833 2.708 13 2.708c2.167 0 2.708 1.084 2.708 1.084" stroke="#fff" stroke-linecap="round"/></svg>